<?xml version="1.0" encoding="UTF-8"?>
<svg version="1.1" xmlns="http://www.w3.org/2000/svg" width="16" height="16">
<path d="M0 0 C1.4540625 0.0309375 1.4540625 0.0309375 2.9375 0.0625 C2.9375 1.0525 2.9375 2.0425 2.9375 3.0625 C1.2875 3.0625 -0.3625 3.0625 -2.0625 3.0625 C-1.7325 6.0325 -1.4025 9.0025 -1.0625 12.0625 C1.9075 12.3925 4.8775 12.7225 7.9375 13.0625 C7.9375 11.4125 7.9375 9.7625 7.9375 8.0625 C8.9275 8.0625 9.9175 8.0625 10.9375 8.0625 C10.98004356 10.06204746 10.97830783 12.06291636 10.9375 14.0625 C9.9375 15.0625 9.9375 15.0625 6.77734375 15.16015625 C4.84568359 15.14275391 4.84568359 15.14275391 2.875 15.125 C1.58464844 15.11597656 0.29429687 15.10695313 -1.03515625 15.09765625 C-2.03417969 15.08605469 -3.03320312 15.07445312 -4.0625 15.0625 C-4.08935412 12.75006208 -4.10882841 10.4375373 -4.125 8.125 C-4.13660156 6.83722656 -4.14820313 5.54945312 -4.16015625 4.22265625 C-4.03220921 0.08228998 -4.03220921 0.08228998 0 0 Z " fill="#42607A" transform="translate(4.0625,0.9375)"/>
<path d="M0 0 C2.64 0 5.28 0 8 0 C8 2.64 8 5.28 8 8 C7.34 8 6.68 8 6 8 C5.67 7.34 5.34 6.68 5 6 C4.236875 6.825 3.47375 7.65 2.6875 8.5 C0 11 0 11 -3 11 C-2.45773019 7.20411134 -0.79872437 5.52788007 2 3 C1.34 2.67 0.68 2.34 0 2 C0 1.34 0 0.68 0 0 Z " fill="#415D79" transform="translate(8,0)"/>
</svg>
