<svg width="50" height="50" viewBox="0 0 50 50" fill="none" xmlns="http://www.w3.org/2000/svg">
<mask id="mask0_276_1093" style="mask-type:luminance" maskUnits="userSpaceOnUse" x="15" y="0" width="20" height="50">
<path d="M35 0H15V49.7079H35V0Z" fill="white"/>
</mask>
<g mask="url(#mask0_276_1093)">
<path d="M25.4061 36.2037C25.1523 36.3614 24.8985 36.519 24.5939 36.6766C23.7818 37.097 23.1219 37.7275 22.665 38.4632C22.1574 39.2514 21.9036 40.1972 21.8528 41.143C21.8021 42.0888 22.0051 43.0346 22.462 43.8754C22.8681 44.6635 23.4772 45.2941 24.2386 45.8195C25 46.3975 25.9137 46.7128 26.8274 46.6603C27.3858 46.6603 27.9949 46.6077 28.5533 46.3975C29.0102 46.2399 29.467 45.9772 29.8731 45.6619C30.33 45.3992 30.736 44.9788 31.0406 44.5059C31.2944 44.1906 31.4975 43.8228 31.6498 43.4024C31.9543 42.6143 32.0558 41.7735 32.0051 40.8803C31.9543 40.4599 31.9036 40.0395 31.7513 39.6192C31.6498 39.3039 31.4975 38.9886 31.2944 38.6734C31.1421 38.4106 30.9899 38.1479 30.7868 37.9377C30.5838 37.7275 30.4315 37.5699 30.1777 37.4123C30.0254 37.2546 29.8731 37.1495 29.7208 37.097C29.3147 36.8868 28.9086 36.6766 28.5025 36.3614C27.9949 35.941 27.6904 35.3105 27.7411 34.6274C27.7411 34.4172 27.7411 34.207 27.7411 33.9443C27.7411 33.8917 27.7411 33.8392 27.7411 33.7866C27.7411 33.4188 27.7919 33.1036 27.7919 32.7357C27.7919 32.3679 27.7919 32.0001 27.7919 31.6323C27.7919 31.3696 27.8426 31.1068 27.8426 30.7916C27.8426 30.3712 27.7919 29.9508 27.7919 29.5305C27.7919 29.1101 27.7919 28.5846 27.7919 28.1117C27.7919 27.4287 27.8426 26.693 27.8426 26.0099C27.8426 25.3268 27.8426 24.6437 27.7919 23.9607C27.7919 23.6454 27.7919 23.3301 27.7919 23.0148C27.7919 22.6996 27.7919 22.4368 27.7919 22.1741C27.7919 21.7537 27.5888 21.3859 27.2335 21.2283C26.7259 21.0707 26.2183 21.3334 26.066 21.8588C26.066 21.8588 26.066 21.8588 26.066 21.9114C26.066 22.069 26.066 22.2792 26.066 22.4368C26.066 22.8047 26.0152 23.1725 26.0152 23.4877C26.0152 24.0657 26.0152 24.6437 26.0152 25.2217C26.0152 25.6947 26.0152 26.1676 26.0152 26.5879C26.0152 26.693 26.066 26.7981 26.066 26.9032C26.066 27.4812 26.0152 28.0067 25.9645 28.5846C25.9645 28.8999 26.0152 29.2152 26.0152 29.5305C26.0152 29.8457 25.9645 30.2661 25.9645 30.6865C25.9645 31.7899 26.0152 32.8934 26.0152 33.9968C26.0152 34.3121 26.0152 34.6274 25.9645 34.9426C25.9645 35.5206 25.7614 35.941 25.4061 36.2037Z" fill="white"/>
<path d="M34.391 44.506C34.8478 43.35 35.0509 42.1414 35.0001 40.8803C35.0001 40.6176 34.9493 40.3549 34.9493 40.0922V39.9871C34.8478 39.1989 34.594 38.4107 34.2387 37.6751C34.1372 37.4123 33.9849 37.2022 33.7818 36.992C33.7311 36.8869 33.6295 36.8344 33.5788 36.7293C33.528 36.6242 33.528 36.6242 33.4773 36.5716C33.3757 36.414 33.2742 36.3089 33.1727 36.1513C33.0712 36.0462 32.9696 35.9936 32.8681 35.8885C32.6143 35.5733 32.3097 35.3631 31.9544 35.1529C31.8021 35.0478 31.6498 34.9427 31.5483 34.7851C31.4976 34.7325 31.4468 34.6274 31.396 34.5749C31.0915 34.2596 30.6346 34.2596 30.33 34.5224C30.33 34.5224 30.33 34.5224 30.2793 34.5749L29.9747 34.8376L30.4316 35.0478C30.4823 35.0478 30.5331 35.1004 30.5331 35.1004C30.8377 35.3105 31.1422 35.5207 31.396 35.7309C31.4468 35.7834 31.4468 35.7834 31.4976 35.836L31.6498 36.0462C31.7006 36.1513 31.7514 36.2564 31.8021 36.3614L32.1067 36.8344C32.3097 37.1496 32.5128 37.4649 32.7158 37.7802C32.9189 38.2005 33.1219 38.6209 33.2742 39.0413C33.4265 39.4091 33.528 39.8294 33.5788 40.2498C33.6295 40.8803 33.6295 41.5109 33.5788 42.1414C33.528 42.6143 33.4773 43.0873 33.325 43.5076C33.0712 44.3483 32.6143 45.1365 32.0559 45.8196C31.4976 46.5027 30.8377 47.0807 30.0762 47.5011C29.2641 47.9214 28.4011 48.1842 27.4874 48.2367C26.8275 48.2892 26.1168 48.2367 25.4569 48.0265C24.6447 47.8689 23.9341 47.5536 23.2234 47.1858C22.7158 46.8705 22.2082 46.4502 21.8528 45.9772C21.8021 45.9247 21.7513 45.8722 21.7513 45.8196L21.7006 45.7145L21.4975 45.4518C21.3452 45.2942 21.2437 45.1365 21.0914 44.9263C20.7869 44.4009 20.5838 43.8229 20.4315 43.2449C20.2285 42.4567 20.1777 41.6685 20.2285 40.9329C20.2285 40.5125 20.33 40.0396 20.4823 39.6193L20.533 39.5142C20.6853 38.9887 20.8884 38.4633 21.1422 37.9378C21.4975 37.3598 21.9036 36.8869 22.3605 36.414L22.462 36.3089C22.8173 35.9411 23.2234 35.6258 23.6295 35.3631C24.1879 35.1004 24.5432 34.5224 24.5432 33.8393C24.5432 33.4714 24.5432 33.0511 24.5432 32.6833C24.5432 32.5256 24.5432 32.3154 24.5432 32.1578V31.6849C24.5432 31.3171 24.5432 31.0018 24.5432 30.634C24.5432 30.4764 24.5432 30.3187 24.5432 30.2136C24.5432 30.1085 24.5432 29.9509 24.5432 29.7933C24.5432 29.4255 24.5432 29.1102 24.5432 28.7424C24.5432 28.2169 24.5432 27.744 24.594 27.2185V26.6405C24.594 26.3778 24.594 26.1151 24.594 25.8524C24.594 25.2218 24.594 24.5913 24.594 23.9607C24.594 23.8031 24.594 23.6455 24.594 23.4878C24.594 23.3302 24.594 23.1725 24.594 23.0149C24.594 22.8573 24.594 22.8573 24.594 22.7522C24.594 22.6471 24.594 22.542 24.594 22.4369C24.594 22.3318 24.594 22.2267 24.5432 22.1216C24.5432 22.0166 24.4924 21.9115 24.4924 21.8064C24.4924 21.5436 24.4924 21.2809 24.4924 21.0182C24.4924 20.7555 24.4924 20.5978 24.4924 20.3876C24.4924 20.1775 24.4924 19.8096 24.4924 19.5469C24.4924 19.2842 24.4924 19.074 24.4924 18.8113C24.4924 18.6536 24.4924 18.496 24.5432 18.3384C24.5432 18.2858 24.594 18.2333 24.6447 18.1807H25.3554C25.66 18.1807 25.9646 18.1807 26.2691 18.1807C26.5229 18.1807 26.7767 18.1282 27.0306 18.0231C27.1828 17.9706 27.3351 17.8129 27.3859 17.6027C27.4366 17.3926 27.4366 17.1824 27.3351 17.0247C27.1828 16.762 26.8783 16.5518 26.5229 16.6044H24.8478C24.6955 16.6044 24.6447 16.6044 24.6447 16.3942V15.7636C24.6447 15.3958 24.6447 15.028 24.6447 14.6602C24.6447 14.6076 24.6447 14.5026 24.6447 14.45C24.6447 14.3975 24.6447 14.3449 24.6447 14.2924C24.594 14.1347 24.6447 13.9771 24.6955 13.8195C24.797 13.7669 24.8985 13.7669 25.0001 13.7669C25.4062 13.7669 25.863 13.7669 26.2691 13.7669H26.6752C26.9798 13.7669 27.2336 13.6093 27.3351 13.294C27.4874 12.9787 27.3351 12.6635 27.0813 12.5058C26.8783 12.4007 26.6752 12.3482 26.4214 12.2957C26.0153 12.2957 25.66 12.2957 25.2539 12.2957H24.797C24.594 12.2957 24.594 12.1906 24.594 12.1906C24.5432 11.8227 24.5432 11.4024 24.5432 11.0346V10.6667C24.5432 10.6142 24.5432 10.5091 24.5432 10.4566C24.5432 10.2989 24.5432 10.1413 24.5432 9.98368C24.4924 9.82604 24.5432 9.6684 24.594 9.56331C24.6447 9.45822 24.6955 9.45822 24.7462 9.45822C24.9493 9.45822 25.1524 9.40568 25.3554 9.40568H26.0661H26.6752C26.9798 9.35313 27.2336 9.14295 27.2844 8.77513C27.3351 8.45986 27.0813 8.14459 26.7767 8.09204C26.6245 8.0395 26.4722 8.0395 26.3199 8.0395H24.797C24.7462 8.0395 24.6447 8.0395 24.594 7.98695C24.5432 7.93441 24.5432 7.88186 24.5432 7.77677C24.5432 7.25132 24.5432 6.77841 24.594 6.25295C24.594 6.09532 24.6447 5.93768 24.6955 5.83259C24.9493 5.1495 25.66 4.67659 26.3707 4.72914C26.7767 4.72914 27.1321 4.72914 27.5382 4.72914C28.4011 4.72914 28.9087 5.1495 29.3148 6.09532C29.3148 6.14786 29.3148 6.20041 29.3148 6.3055C29.3148 6.35804 29.3148 6.41059 29.3148 6.46313V6.67332C29.3148 6.83095 29.3148 7.04113 29.3148 7.19877C29.3148 7.30386 29.3148 7.40895 29.2641 7.4615C29.2641 7.56659 29.2133 7.72422 29.2133 7.82931C29.2133 8.35477 29.2133 8.93277 29.1625 9.45822V10.7193C29.1625 11.2447 29.1625 11.7177 29.1625 12.2431C29.1625 14.3975 29.1625 16.5518 29.2133 18.7062C29.2133 19.1266 29.2133 19.5469 29.2641 20.0198L29.3148 22.4369C29.3148 22.9098 29.3148 23.4353 29.3656 23.9082C29.3656 24.0133 29.3656 24.1709 29.3656 24.276C29.3656 24.3811 29.3656 24.5387 29.3656 24.6964C29.3656 24.854 29.3656 24.9591 29.3656 25.1167C29.3656 25.2744 29.3656 25.3795 29.3656 25.4845C29.3656 25.5896 29.3656 25.6947 29.3656 25.7998C29.3656 25.9049 29.3656 26.0625 29.3656 26.1676C29.3656 26.2727 29.3656 26.4304 29.3656 26.5355C29.3656 26.6405 29.3656 26.7456 29.3656 26.8507C29.3656 27.0609 29.3656 27.2711 29.3656 27.4813C29.3656 27.6915 29.3656 27.9016 29.3656 28.1644C29.3656 28.2695 29.3656 28.3745 29.3656 28.4796C29.3656 28.5847 29.3656 28.7424 29.3656 28.8475C29.3656 29.0576 29.3656 29.2678 29.3148 29.478C29.3148 29.7933 29.2641 30.1085 29.2641 30.4764C29.2641 31.4222 29.3148 32.4205 29.3656 33.4714C29.4163 33.6816 29.5179 33.8918 29.6194 34.0494L29.7209 34.2071C29.7717 34.3122 29.8224 34.3647 29.924 34.4173V34.4698L30.1778 34.6274L30.33 34.3647C30.3808 34.3122 30.3808 34.2596 30.4316 34.2071C30.4316 34.0494 30.4823 33.8918 30.4823 33.7342C30.5839 32.946 30.6346 32.1053 30.6346 31.3171C30.6346 30.8967 30.6346 30.4764 30.6346 30.056C30.6346 29.7407 30.6346 29.4255 30.6346 29.0576C30.6346 28.5322 30.6346 28.0067 30.6346 27.4813C30.6346 26.9558 30.6346 26.4304 30.6346 25.9049C30.6346 25.7998 30.6346 25.6422 30.6346 25.5371C30.6346 25.432 30.6346 25.3269 30.6346 25.2218C30.6346 24.9591 30.6346 24.6438 30.6346 24.3811V23.6455C30.6346 23.3302 30.6346 23.0149 30.6346 22.6471C30.6346 22.2793 30.6346 22.0691 30.6854 21.8064C30.7361 21.5436 30.7361 21.2809 30.7361 21.0182C30.7361 20.2826 30.7869 19.652 30.7869 19.0215C30.7869 17.3926 30.7869 15.7111 30.7869 14.0822V10.4566C30.7869 10.3515 30.7869 10.2989 30.7869 10.1938C30.7869 10.0887 30.7869 9.93113 30.7869 9.82604C30.7869 9.30059 30.7361 8.82768 30.7361 8.30222L30.6854 7.56659C30.6854 7.51404 30.6854 7.40895 30.6854 7.30386C30.6854 7.14622 30.6854 7.04113 30.6854 6.8835C30.7361 6.46313 30.7361 6.04277 30.5839 5.62241C30.4316 4.93932 30.0762 4.36132 29.5686 3.94096C29.061 3.46805 28.4011 3.20532 27.6905 3.20532C27.3351 3.20532 26.9798 3.20532 26.6245 3.20532H26.2691C25.6092 3.20532 24.9493 3.4155 24.3909 3.83586C23.5787 4.41386 23.0711 5.41223 23.1219 6.46313C23.1219 7.25131 23.1219 8.0395 23.1726 8.77513C23.1726 9.0904 23.1726 9.40568 23.2234 9.6684C23.2742 9.93113 23.2742 10.2989 23.2742 10.6142C23.2742 10.7718 23.2742 10.8769 23.2742 11.0346C23.2742 11.1397 23.2742 11.2447 23.2742 11.3498C23.2742 11.4024 23.2742 11.5075 23.2742 11.56C23.2742 11.6126 23.2742 11.6126 23.2742 11.6651C23.2742 11.7702 23.2742 11.9278 23.2234 12.0329C23.1726 12.138 23.1726 12.4007 23.1726 12.5584C23.1726 12.8737 23.1726 13.1364 23.1726 13.4517C23.1726 13.6618 23.1726 13.872 23.1726 14.0822C23.1726 14.1873 23.1726 14.2924 23.1726 14.3975C23.1726 14.5026 23.1726 14.6602 23.1726 14.7653C23.1726 15.2907 23.1726 15.7636 23.1726 16.2891V17.2349C23.1726 18.3384 23.1726 19.4418 23.2234 20.5978C23.2234 20.6504 23.2234 20.6504 23.2234 20.7029C23.2234 20.7555 23.2234 20.8606 23.2234 20.9131C23.2234 21.0707 23.2234 21.2284 23.2234 21.386C23.2234 21.6487 23.2234 21.8589 23.2234 22.1216C23.2234 22.3844 23.2234 22.7522 23.1726 23.0675C23.1219 23.3827 23.1219 23.8031 23.1219 24.1709C23.1219 24.8015 23.1219 25.432 23.1219 26.01V26.6931C23.1219 26.7456 23.1219 26.7982 23.1219 26.8507V27.0609C23.1219 27.2185 23.1726 27.4287 23.1726 27.5864C23.1726 27.744 23.1726 27.9542 23.1219 28.1118C23.1219 28.2695 23.1219 28.4796 23.1219 28.6898C23.1219 28.7949 23.1219 28.9525 23.1726 29.0576C23.1726 29.1627 23.2234 29.2678 23.2234 29.3204C23.2234 29.6882 23.2234 30.056 23.2234 30.4238C23.2234 30.634 23.2234 30.8442 23.2234 31.0544C23.2234 31.2645 23.2234 31.6324 23.2234 31.8951C23.2234 32.1578 23.2234 32.3154 23.2234 32.5256C23.2234 32.7358 23.2234 32.8409 23.2234 33.0511C23.2742 33.3664 23.2742 33.6816 23.1219 33.9444C23.0204 34.0494 22.8681 34.1545 22.7665 34.2596L22.665 34.3122C22.5635 34.3647 22.462 34.4698 22.3605 34.5224C22.1574 34.6274 22.0051 34.7851 21.8528 34.8902C21.0914 35.5733 20.4823 36.3614 19.9239 37.2547C19.5686 37.8327 19.3148 38.5158 19.1625 39.1989C19.061 39.7243 18.9594 40.2498 18.9087 40.8278C18.8579 41.616 18.9594 42.4567 19.1625 43.2449C19.264 43.8229 19.4671 44.4009 19.7716 44.9263C19.8224 45.0314 19.8731 45.1891 19.9239 45.2942C19.9747 45.4518 20.0762 45.6094 20.127 45.7671C20.7869 46.7654 21.599 47.6587 22.5635 48.3418C23.0711 48.7096 23.5787 48.9723 24.1371 49.2351C24.8985 49.5503 25.7108 49.7605 26.5737 49.7605C26.726 49.7605 26.8783 49.7605 27.0306 49.7605C27.4366 49.708 27.8427 49.708 28.1981 49.6554C29.2641 49.4978 30.2285 49.0774 31.1422 48.4994C31.5483 48.2892 31.9036 48.0265 32.2082 47.7113C32.462 47.4485 32.7158 47.1858 32.9696 46.8705L33.325 46.4502C33.7818 45.8196 34.1372 45.1891 34.391 44.506Z" fill="white"/>
<path d="M19.467 7.56653C19.5686 7.35635 19.6701 7.09363 19.6701 6.77835C19.6701 6.35799 19.6701 5.99017 19.6193 5.56981C19.6193 5.35963 19.6193 5.14945 19.6193 4.99181V4.93927C19.5686 4.83417 19.5686 4.78163 19.5686 4.72908C19.5686 4.67654 19.5686 4.67654 19.6193 4.62399C19.9239 4.62399 20.2285 4.62399 20.533 4.62399H20.8884H21.1929C21.4467 4.62399 21.7005 4.62399 21.9543 4.62399C22.3097 4.57145 22.5635 4.30872 22.6142 3.9409C22.7158 3.62563 22.462 3.25781 22.1066 3.15272C21.8528 3.10018 21.6498 3.10018 21.396 3.10018C21.0914 3.10018 20.7868 3.15272 20.533 3.15272H20.2285C20.0762 3.15272 19.9747 3.15272 19.8731 3.20527C19.7208 3.25781 19.6193 3.20527 19.5178 3.15272C19.4163 3.04763 19.4163 2.89 19.4163 2.7849C19.467 2.62727 19.467 2.52218 19.4163 2.36454C19.3655 2.15436 19.3655 1.89163 19.4163 1.68145C19.4163 1.57636 19.4163 1.52381 19.4163 1.41872C19.467 1.156 19.467 0.840727 19.4163 0.578C19.3655 0.367818 19.2132 0.157637 19.0609 0.0525454C18.9087 0 18.7564 0 18.6041 0C18.5026 0.0525454 18.3503 0.157637 18.2995 0.315273C18.2488 0.525454 18.198 0.683091 18.2488 0.893272C18.2488 0.998362 18.2488 1.10345 18.2488 1.20854C18.2488 1.31363 18.2488 1.36618 18.2488 1.47127C18.2488 1.52381 18.2488 1.52381 18.2488 1.57636C18.198 1.68145 18.198 1.83909 18.2488 1.94418C18.3503 2.2069 18.3503 2.52218 18.2488 2.7849C18.198 3.04763 17.995 3.25781 17.7412 3.25781C17.5381 3.25781 17.2843 3.25781 17.0813 3.25781H15.6599C15.3554 3.25781 15.0508 3.52054 15 3.88836C14.9493 4.20363 15.2031 4.5189 15.5076 4.62399C15.6599 4.67654 15.8122 4.67654 15.9645 4.67654H16.6244C16.9797 4.67654 17.3351 4.67654 17.6904 4.67654C17.7919 4.67654 17.8934 4.67654 17.995 4.72908C18.0457 4.83417 18.0457 4.88672 18.0457 4.99181V5.0969C18.0457 5.25454 18.0457 5.41217 17.995 5.56981C17.995 6.09526 17.995 6.56817 17.995 7.09363C17.995 7.46144 18.198 7.77672 18.5533 7.88181C18.6041 7.88181 18.7056 7.93435 18.7564 7.93435C19.0609 7.9869 19.3148 7.82926 19.467 7.56653Z" fill="white"/>
</g>
</svg>
