<svg width="50" height="50" viewBox="0 0 50 50" fill="none" xmlns="http://www.w3.org/2000/svg">
<mask id="mask0_276_1101" style="mask-type:luminance" maskUnits="userSpaceOnUse" x="2" y="10" width="45" height="31">
<path d="M47 10H2V40.4839H47V10Z" fill="white"/>
</mask>
<g mask="url(#mask0_276_1101)">
<path d="M3.41134 28.6802L3.46562 28.247C3.5199 27.868 3.57419 27.489 3.68275 27.1641C3.89988 26.3519 4.22557 25.5939 4.71411 24.89C5.09409 24.2403 5.58263 23.6988 6.17973 23.2115C6.77684 22.67 7.48251 22.1827 8.18818 21.8579C8.67672 21.6413 9.21954 21.4247 9.76236 21.2081L10.1423 21.0457C10.468 20.9374 10.7394 20.8291 11.0651 20.7749C11.3365 20.7208 11.5537 20.6667 11.8251 20.6125C12.0965 20.5584 12.4765 20.5042 12.8565 20.3959C13.345 20.2876 13.8335 20.1252 14.2678 19.9628L14.7563 19.8003L15.1363 19.692C15.2992 19.6379 15.5163 19.5837 15.7334 19.5296C16.4391 19.313 17.1448 19.0423 17.7961 18.7174L17.9047 18.6633C18.0133 18.6091 18.0676 18.555 18.1761 18.5008C18.2304 18.4467 18.339 18.3925 18.4475 18.3384C18.7732 18.2301 19.0446 18.1218 19.316 17.9052C19.4246 17.8511 19.4789 17.7969 19.5875 17.7428C19.8046 17.6345 19.9674 17.5262 20.1303 17.4179C20.3474 17.2013 20.6188 16.9848 20.8359 16.8223C21.2702 16.4974 21.6502 16.1184 22.0302 15.6853C22.0844 15.577 22.193 15.5228 22.3016 15.4687C22.4101 15.3604 22.5187 15.3063 22.6273 15.198C22.8987 14.8189 23.1701 14.4399 23.4958 14.0609L23.7129 13.736C23.9843 13.3029 24.31 12.9239 24.5814 12.4907C24.9614 11.7327 25.8842 11.5161 26.6441 11.8951C26.807 11.9492 26.9156 12.0575 27.0241 12.1658C27.2955 12.5448 27.4584 13.0322 27.3498 13.5195C27.2413 14.1692 26.9698 14.8189 26.6441 15.4687L26.4813 15.7936C26.2642 16.2267 25.9928 16.6599 25.6671 17.0389L25.5042 17.2555C25.2328 17.5804 24.9614 17.9594 24.69 18.2843C24.4186 18.6091 24.0929 19.0423 23.7672 19.4754C23.2786 20.1793 22.7901 20.8832 22.4644 21.4247C22.2473 21.8037 22.193 22.2369 22.3016 22.6159C22.3559 22.7242 22.3559 22.8325 22.3016 22.9408C22.0844 23.4281 21.813 23.9154 21.5959 24.4027C21.1616 25.269 20.6731 26.0812 20.2388 26.9475C20.076 27.2182 19.9131 27.489 19.696 27.7597L19.6417 27.868C19.4246 28.1387 19.2618 28.4094 19.1532 28.7885C19.1532 28.8426 19.0989 28.8426 19.0989 28.8968C18.5561 29.3841 18.0676 29.9797 17.6333 30.5753L17.5247 30.7377L16.4391 32.2538L15.3534 33.7698C15.082 34.1489 14.8106 34.582 14.4849 34.961C14.1049 35.4484 13.725 35.9898 13.2907 36.4771L12.6393 37.3976C12.5308 37.5059 12.3679 37.56 12.2593 37.56L11.4994 37.3976C11.1737 37.2893 10.848 37.4517 10.6852 37.7225C10.5223 37.9932 10.5766 38.3181 10.7937 38.5346C11.0109 38.6971 11.228 38.8595 11.4994 38.9137C11.8251 39.022 12.2051 39.0761 12.585 39.1844L13.1279 39.2927L13.5078 39.401C13.725 39.4551 13.9421 39.5093 14.2135 39.5634C14.5935 39.6176 14.9735 39.6717 15.2992 39.7258L15.842 39.8341L16.4391 39.9424C16.8733 39.9966 17.2533 40.1049 17.6333 40.159C18.3932 40.2673 19.0989 40.3214 19.6417 40.3756C20.1846 40.4297 20.8902 40.4839 21.4873 40.4839C21.9216 40.4839 22.4101 40.538 22.8444 40.538H24.0386L25.8299 40.4839L26.7527 40.4297L27.3498 40.3756L28.544 40.2673L29.0869 40.2132C29.3583 40.159 29.6297 40.159 29.9011 40.1049C30.4439 39.9966 31.1496 39.8883 31.9095 39.7258C32.5609 39.6176 33.2123 39.4551 34.0808 39.2385C34.4608 39.1302 34.7865 39.022 35.1665 38.9137L35.7636 38.7512C36.5778 38.5346 37.392 38.2639 38.152 37.939C38.3691 37.8308 38.532 37.7766 38.7491 37.7225C38.9119 37.6683 39.0748 37.6142 39.2376 37.56L39.509 37.4517C40.0519 37.2352 40.5947 37.0727 41.1375 36.802C41.8432 36.4771 42.4946 35.9898 43.0374 35.3401C43.7973 34.4737 44.0688 32.9577 43.0917 31.983C42.9831 31.8748 42.9288 31.8206 42.9288 31.8206C42.9831 31.7665 43.0374 31.7123 43.146 31.6582C43.9059 31.1709 44.5573 30.5211 45.0458 29.7631C45.3715 29.2758 45.4801 28.626 45.3715 28.0846C45.3172 27.5973 45.0458 27.1641 44.7201 26.7851C44.6659 26.7309 44.6116 26.6227 44.6116 26.5685C44.6659 26.4602 44.7744 26.3519 44.883 26.3519C44.9373 26.3519 44.9916 26.2978 45.1001 26.2436C45.8058 25.8105 46.3486 25.2149 46.6743 24.511C46.8914 24.0778 47 23.5364 46.8914 22.9949C46.7829 22.3993 46.4572 21.8579 45.9144 21.533C45.4258 21.2081 44.7744 21.0998 44.1773 21.2081C44.123 21.2081 44.0688 21.2081 44.0145 21.154C44.0145 21.0998 44.0145 21.0998 44.0145 21.0457L44.0688 20.8832C44.1773 20.4501 44.2316 20.0169 44.2316 19.5837C44.2316 18.7716 43.7431 18.0135 43.0374 17.6345C42.2774 17.2555 41.4089 17.2013 40.5404 17.3638C39.6719 17.4721 38.8034 17.6886 37.9349 18.0135L37.2835 18.2301C36.8492 18.3925 36.415 18.555 35.9807 18.6633C35.4379 18.8257 34.9493 18.934 34.4065 19.0964L33.538 19.313L33.2123 19.4213C33.1037 19.4755 32.9952 19.4755 32.8323 19.5296L31.801 19.7462L30.8239 19.9628L30.1725 20.1252C29.9554 20.1793 29.684 20.2335 29.4668 20.2876C28.544 20.5042 27.6212 20.6667 26.6984 20.8291C25.8842 20.9915 25.1785 21.0998 24.5271 21.2081C24.4729 21.2081 24.4186 21.2081 24.3643 21.2081C24.3643 21.154 24.3643 21.154 24.3643 21.0998C24.69 20.5042 25.0157 20.0169 25.2871 19.5837C25.3957 19.3672 25.5585 19.2047 25.7213 19.0423C25.8842 18.8798 25.8842 18.8257 25.9928 18.6633C26.3727 18.176 26.6984 17.6887 27.0784 17.2013L27.187 17.0389C27.3498 16.8223 27.5127 16.5516 27.6755 16.2809C28.0555 15.5228 28.3812 14.7106 28.6526 13.8443C28.8154 13.4112 28.8697 12.9239 28.8154 12.4365C28.6526 11.6785 28.2183 10.9746 27.5669 10.5415C26.3727 9.72928 24.7443 9.83757 23.7672 10.9205C23.5501 11.1912 23.3872 11.4619 23.2244 11.7327L23.1701 12.0034C23.0615 12.1658 22.953 12.3824 22.8444 12.5448C22.6815 12.8156 22.5187 13.1404 22.3016 13.4112C21.813 14.1692 21.2159 14.8731 20.5103 15.4687L20.076 15.8477C19.8046 16.0643 19.5332 16.2809 19.2618 16.4974C18.6647 16.8765 18.0676 17.2555 17.4704 17.5804C17.0905 17.7969 16.6562 17.9594 16.222 18.1218L15.842 18.2843C15.7877 18.2843 15.6791 18.3384 15.5706 18.3384H15.462H15.2992C15.1906 18.3384 15.082 18.3925 14.9735 18.3925C14.1592 18.6091 13.345 18.7716 12.5308 18.8799H12.3136C11.9337 18.934 11.4994 18.9881 11.1194 19.0964C10.0881 19.313 9.16526 19.6379 8.24246 20.1252L7.59107 20.5042C7.26538 20.6667 6.8854 20.8832 6.55971 21.0998C6.23402 21.3164 5.96261 21.533 5.63691 21.7496L5.31122 22.0203C5.09409 22.2369 4.87696 22.4535 4.65983 22.67C4.55127 22.8325 4.38842 22.9949 4.27986 23.1573C4.17129 23.2656 4.06273 23.4281 4.00844 23.5364C3.35706 24.3485 2.81423 25.269 2.48854 26.2436C2.37998 26.6227 2.27141 27.0017 2.21713 27.4348C2.21713 27.5973 2.16285 27.7056 2.10857 27.868C2.05428 28.0846 2 28.3553 2 28.626C2 28.8426 2.05428 29.005 2.16285 29.1675C2.27141 29.2758 2.43426 29.3841 2.59711 29.3841C2.97708 29.4382 3.30277 29.1675 3.41134 28.8426C3.41134 28.7885 3.41134 28.7343 3.41134 28.6802ZM21.2702 27.3265C21.3788 27.2182 21.4331 27.0558 21.5416 26.9475L22.1387 26.1353C22.4644 25.7022 22.7901 25.2149 23.1158 24.7276C23.3329 24.4568 23.4958 24.132 23.6586 23.8071L23.93 23.3739L23.9843 23.2656C24.0929 23.9695 24.2557 24.6734 24.3643 25.3773L24.5271 26.4602C24.5814 26.7851 24.6357 27.1641 24.69 27.489C24.69 27.6514 24.7443 27.8138 24.8528 27.9221C24.9614 28.1387 25.0157 28.4094 25.0157 28.6802C25.0157 28.7885 25.0157 28.8426 25.07 28.8968V28.9509C25.07 29.005 25.07 29.1133 25.1242 29.1675C25.1785 29.3841 25.1785 29.6006 25.1785 29.7631C25.1785 29.9797 25.1785 30.1962 25.2328 30.4128C25.2328 30.467 25.2328 30.5211 25.2871 30.6294C25.3414 31.0626 25.3957 31.4957 25.5042 31.9289C25.5042 31.983 25.5042 32.0913 25.5585 32.1455C25.5585 32.4162 25.6128 32.6328 25.7213 32.8494C25.8842 33.2284 25.7756 33.7157 25.4499 33.9864C25.2328 34.2572 25.0157 34.5279 24.7986 34.7986C24.5814 35.0693 24.3643 35.3401 24.1472 35.6108C23.93 35.8815 23.7129 36.2064 23.4415 36.4771L23.0072 37.0186L22.6273 37.56C22.4101 37.8308 22.193 38.1015 21.9759 38.3722C21.813 38.6429 21.5416 38.7512 21.2159 38.7512L20.9988 38.6971C20.7817 38.6971 20.6188 38.6429 20.4017 38.6429C20.3474 38.6429 20.2388 38.6429 20.1846 38.6429H20.076L18.6104 38.4805L18.0133 38.4264L17.3076 38.3181L16.9276 38.2639C16.5476 38.2098 16.1677 38.1556 15.7877 38.1015C15.4077 38.0473 15.082 37.939 14.7021 37.8849L14.1592 37.7766C14.1049 37.7766 14.0507 37.7225 13.9964 37.7225C13.9964 37.6683 13.9964 37.6142 14.0507 37.6142C14.2135 37.3976 14.4306 37.1269 14.5935 36.9103L15.0277 36.3147C15.6248 35.5025 16.1677 34.6903 16.7648 33.8781C17.199 33.2284 17.6876 32.5786 18.1218 31.9289C18.2847 31.7123 18.4475 31.4416 18.6104 31.1709L18.9361 30.6294C19.0446 30.467 19.0989 30.3587 19.2075 30.1962C19.316 30.0338 19.4789 29.8172 19.5875 29.6006C19.696 29.3841 19.8046 29.2216 19.8589 29.0592C19.9131 28.8968 19.9674 28.8426 20.0217 28.7343L20.076 28.6802C20.1303 28.5719 20.1846 28.4636 20.2931 28.3553C20.5103 28.1387 20.6731 27.868 20.7817 27.5431C21.1074 27.5431 21.1616 27.4348 21.2702 27.3265ZM31.421 22.9949C31.5296 23.4281 31.5838 23.9154 31.6924 24.3485C31.7467 24.4568 31.7467 24.6193 31.801 24.7276C31.8552 24.8359 31.8552 24.9441 31.9095 25.0524C31.9638 25.269 32.0181 25.4314 32.0181 25.648C32.0181 25.8646 32.0724 25.9188 32.1267 26.0812L32.1809 26.2436C32.2352 26.6768 32.3981 27.0558 32.6152 27.4348C32.6152 27.7597 32.6152 28.1387 32.7238 28.4636C32.778 28.626 32.778 28.7343 32.8323 28.8968C32.8323 29.0592 32.8866 29.2216 32.9409 29.3299C32.9409 29.4382 32.9952 29.5465 32.9952 29.6548C32.9952 29.7631 33.0495 29.9255 33.0495 30.088C33.0495 30.2504 33.1037 30.4128 33.1037 30.5753L33.158 30.7918C33.2666 31.2792 33.3209 31.7665 33.4294 32.2538C33.7551 33.3908 34.1351 34.5279 34.5694 35.6108C34.7865 36.0981 35.0036 36.5854 35.1665 37.1269C35.2207 37.181 35.2207 37.2893 35.1665 37.3976C35.1122 37.4517 35.0579 37.56 34.9493 37.56C34.6779 37.6683 34.4065 37.7225 34.0808 37.7766L33.6466 37.8849L33.2123 37.9932C32.9409 38.0473 32.6695 38.1556 32.3981 38.2098C31.8552 38.3181 31.2581 38.4264 30.7153 38.5346L30.4439 38.5888C30.0639 38.6429 29.684 38.7512 29.2497 38.7512C29.0326 38.7512 28.8154 38.7512 28.5983 38.7512C28.4897 38.6971 28.3812 38.5888 28.3812 38.4805C28.1641 37.939 28.0555 37.3434 27.8926 36.7478C27.7841 36.3147 27.6755 35.9357 27.5669 35.5025C27.5127 35.2318 27.4041 34.961 27.3498 34.7445C27.2955 34.5279 27.187 34.0947 27.1327 33.7157C27.0784 33.3367 27.0241 33.1742 26.9698 32.9035C26.807 32.3079 26.6984 31.7123 26.5356 31.1167C26.4813 30.9001 26.427 30.6836 26.3727 30.467C26.3185 30.2504 26.2642 30.088 26.2099 29.9255C26.2099 29.8714 26.2099 29.8172 26.2099 29.8172V29.7089V29.6548C26.2099 29.5465 26.2099 29.4382 26.1556 29.3299C25.9928 29.005 25.9385 28.626 26.047 28.247L25.9928 27.5973C25.9385 27.11 25.8842 26.6768 25.8299 26.1895C25.8299 26.0812 25.8299 25.9729 25.8299 25.8105L25.6128 23.4281C25.6128 23.2656 25.6128 23.1573 25.6128 22.9949C25.6128 22.9408 25.6128 22.8325 25.8842 22.7783L26.6984 22.6159L28.4355 22.2369C28.5983 22.1827 28.7069 22.1827 28.8697 22.1286C29.0326 22.0744 29.1411 21.912 29.2497 21.912C29.7925 21.8037 30.3896 21.6413 30.9324 21.533H30.9867C31.041 21.533 31.041 21.533 31.0953 21.533C31.1496 21.5871 31.2039 21.6413 31.2039 21.6954C31.2581 21.912 31.2581 22.1286 31.3124 22.3452C31.3667 22.5617 31.421 22.7783 31.421 22.9949ZM36.9578 36.7478C36.8492 36.7478 36.6864 36.802 36.6321 36.5313L36.5778 36.3147C36.415 35.8815 36.2521 35.4484 36.0893 35.0152C35.9807 34.7445 35.9807 34.7445 36.3064 34.6362L37.0663 34.3654C37.5549 34.203 38.0434 34.0406 38.4777 33.8781C38.8577 33.7698 39.1833 33.6074 39.509 33.4991C39.8347 33.3908 40.1604 33.2284 40.4861 33.1201C40.7033 33.066 40.9204 33.0118 41.1375 32.9577L41.4089 32.9035C41.6803 32.8494 42.006 33.066 42.0603 33.3367C42.0603 33.3908 42.0603 33.3908 42.0603 33.445C42.0603 33.7157 42.006 33.9323 41.8432 34.1489C41.4089 34.6903 40.8661 35.1776 40.2147 35.4484C39.4548 35.8274 38.6405 36.1522 37.8263 36.4771L37.6092 36.5313C37.392 36.6396 37.1749 36.6937 36.9578 36.7478ZM40.8661 31.0626L40.269 31.3333C39.9976 31.4416 39.7262 31.604 39.4005 31.7123C38.532 32.0913 37.7177 32.4162 36.8492 32.7411C36.415 32.9035 36.035 33.066 35.655 33.1742C35.4922 33.2284 35.4379 33.2284 35.3836 33.0118C35.275 32.6328 35.1122 32.2538 35.0036 31.8206L34.8408 31.2792C34.7865 31.0626 34.7322 30.846 34.6236 30.6294C34.6236 30.5753 34.6236 30.5753 34.6779 30.5211C34.7865 30.467 34.8951 30.4128 35.0036 30.3587L35.2207 30.3045C35.4922 30.1962 35.7636 30.088 36.035 29.9797C36.3064 29.8714 36.5235 29.8714 36.7407 29.7631C37.1206 29.6548 37.5006 29.6006 37.8263 29.4382C38.4777 29.2216 39.0748 28.9509 39.7262 28.6802L40.1604 28.5177L40.9747 28.1387C41.4089 27.9221 41.8975 27.7056 42.386 27.5431C42.6031 27.4348 42.8745 27.3807 43.0917 27.3807C43.3088 27.3807 43.5259 27.4348 43.6888 27.5973C43.8516 27.7597 43.9602 27.9763 43.9602 28.1929C43.9602 28.5719 43.8516 28.9509 43.5802 29.2758C43.2545 29.6548 42.8745 29.9797 42.4403 30.2504C41.9517 30.5753 41.4089 30.846 40.8661 31.0626ZM43.6888 25.5939C43.5802 25.648 43.5259 25.648 43.4174 25.7022L42.766 26.0271L42.006 26.4061L41.3004 26.7309L40.9204 26.8934C40.1061 27.2724 39.2376 27.5973 38.3691 27.8139C38.2606 27.8139 38.2063 27.868 38.0977 27.9221L37.9891 27.9763L37.5549 28.1387L37.1749 28.3012C37.0663 28.3553 36.9035 28.4094 36.7949 28.4636C36.5778 28.626 36.2521 28.6802 35.9807 28.6802C35.8721 28.6802 35.7636 28.7343 35.655 28.7885C35.2207 29.005 34.7322 29.1675 34.2437 29.2758C34.1351 29.3299 33.9723 29.2758 33.918 29.1675V29.1133C33.8637 28.8968 33.8094 28.626 33.7551 28.4094C33.7008 28.0846 33.6466 27.8138 33.538 27.489C33.4294 27.1641 33.3752 26.8392 33.3209 26.5144L33.2666 26.2436C33.2666 26.1353 33.2666 25.9729 33.3751 25.8646C33.4294 25.7563 33.5923 25.7022 33.7008 25.7022C33.8094 25.7022 33.918 25.648 34.0808 25.648L34.5694 25.4856C35.0036 25.3232 35.4922 25.2149 35.9807 24.9983C36.2521 24.89 36.5235 24.8358 36.7407 24.8358L37.0663 24.7817C37.3378 24.7276 37.6092 24.6193 37.8263 24.511C37.9349 24.4568 38.0434 24.4027 38.152 24.3485C38.2606 24.2944 38.3691 24.2944 38.4777 24.2403L38.6405 24.1861H38.7491C38.8577 24.1861 38.9662 24.132 39.0748 24.0778C39.2376 23.9695 39.4548 23.9154 39.6719 23.8612C39.7805 23.8612 39.889 23.8071 39.9976 23.8071C40.4318 23.6988 40.8661 23.5364 41.2461 23.3198L41.3546 23.2656C41.4632 23.2115 41.5718 23.1032 41.6261 22.9949C41.6261 22.8866 41.6261 22.8325 41.6261 22.7242C41.6803 22.7783 41.7346 22.8325 41.7889 22.8325C41.9517 22.8866 42.1689 22.9408 42.386 22.8866C42.6031 22.8325 42.766 22.7783 42.9831 22.7242C43.3088 22.6159 43.6345 22.5617 43.9602 22.5076C44.3945 22.3993 44.8287 22.5076 45.2087 22.7783C45.5887 23.2115 45.5887 23.8612 45.263 24.2944C44.883 24.7276 44.503 25.1066 44.0688 25.4314C43.9602 25.4856 43.8516 25.5397 43.6888 25.5939ZM42.766 20.7208L42.7117 20.8291C42.6574 21.0457 42.4946 21.2081 42.3317 21.3164L42.1689 21.4247C42.1146 21.4788 42.006 21.533 41.9517 21.5871C41.8432 21.6413 41.7889 21.7496 41.6803 21.8037C41.5175 21.912 41.4632 22.1286 41.4632 22.3452C41.4632 22.3993 41.4632 22.3993 41.4632 22.4535C41.3546 22.3452 41.1918 22.291 41.0832 22.291C40.9204 22.291 40.7575 22.3452 40.649 22.3993L40.3776 22.4535C39.9433 22.5076 39.509 22.7242 39.1291 22.9949H39.0205H38.8577L38.532 23.0491C38.2606 23.1032 37.9891 23.1573 37.7177 23.2656C37.6092 23.3198 37.4463 23.3739 37.3378 23.4281C37.2835 23.4822 37.1749 23.5364 37.1206 23.5364L36.9035 23.5905C36.6864 23.6988 36.4692 23.7529 36.2521 23.7529C35.7093 23.8071 35.2207 23.9154 34.7322 24.132C34.5151 24.2403 34.2979 24.2944 34.0808 24.3485C33.918 24.4027 33.7008 24.4027 33.538 24.4568H33.3751C33.2666 24.4568 33.158 24.4027 33.158 24.2944C33.0495 23.7529 32.9952 23.2115 32.8866 22.6159V22.4535C32.8323 22.0744 32.778 21.7496 32.7238 21.3705C32.7238 21.2081 32.7238 21.154 32.9952 21.0457C34.1351 20.7208 35.2207 20.4501 36.3607 20.1252L36.5235 20.0711C37.392 19.8545 38.3148 19.5837 39.1834 19.3672L39.4005 19.313C40.1604 19.0964 40.9204 18.9881 41.6803 18.934H41.7346C42.0603 18.934 42.3317 19.0423 42.5489 19.2589C42.7117 19.4213 42.766 19.6379 42.8203 19.8545V19.9628C42.8745 20.2335 42.8203 20.4501 42.766 20.7208ZM23.9843 38.6429L24.1472 38.4264L24.3643 38.1015C24.69 37.7225 24.9614 37.3976 25.2328 36.9644C25.3957 36.7478 25.5585 36.5313 25.7213 36.2605L26.1013 35.7732C26.1556 35.7191 26.1556 35.6649 26.2099 35.6649C26.2642 35.7191 26.3185 35.7732 26.3185 35.8274C26.3727 36.044 26.427 36.3147 26.4813 36.5313C26.5356 36.7478 26.5899 36.9644 26.6441 37.181C26.6984 37.3976 26.7527 37.56 26.8613 37.7766C26.9698 37.9932 26.9698 38.1015 27.0241 38.2639C27.0784 38.4264 27.0784 38.5888 27.1327 38.7512C27.0784 38.8054 27.0241 38.8054 27.0241 38.8054C26.807 38.8595 26.5899 38.8595 26.3727 38.9137L25.3414 38.9678H24.5814C24.4729 38.9678 24.3643 38.9678 24.31 39.022H24.2557H24.1472C24.0386 39.022 23.8758 38.9678 23.7672 38.9137C23.8215 38.8054 23.8758 38.7512 23.9843 38.6429Z" fill="white"/>
</g>
</svg>
