<svg width="50" height="50" viewBox="0 0 50 50" fill="none" xmlns="http://www.w3.org/2000/svg">
<path d="M44.7388 21.7113C44.5635 21.36 44.213 21.0965 43.7748 21.0086C43.5119 20.9647 43.249 20.9208 42.9861 20.9208C42.8985 20.9208 42.8108 20.9208 42.7232 20.8769C42.7232 20.7891 42.7232 20.7012 42.767 20.6573C42.8985 20.3938 42.8985 20.0864 42.8546 19.823C42.8546 19.779 42.8108 19.6912 42.8108 19.6034C42.767 19.296 42.6794 19.0325 42.5041 18.769C42.3288 18.4616 42.0221 18.242 41.6716 18.1542C41.5401 18.1103 41.3649 18.1103 41.2334 18.0664C40.8391 17.9785 40.4447 17.9346 40.0942 18.0225L39.7436 18.0664C39.3931 18.1103 39.0864 18.1542 38.7359 18.242C37.991 18.4616 37.2899 18.6812 36.545 18.9007L35.4058 19.2521C34.8361 19.4277 34.2665 19.6034 33.6969 19.7351L32.47 20.0425L31.4184 20.306C31.287 20.3499 31.1555 20.3938 31.0241 20.4378C30.8488 20.4817 30.6735 20.5256 30.4983 20.5695C30.2354 20.6134 29.9725 20.6573 29.7096 20.7012L29.1399 20.7891C29.0085 20.833 28.877 20.833 28.7894 20.8769C28.6141 20.9208 28.4827 20.9647 28.3074 20.9647C28.2198 20.9647 28.0883 20.9647 28.0007 21.0086C27.9131 21.0086 27.8254 21.0526 27.694 21.0526C27.5187 21.0526 27.3434 21.0965 27.1682 21.1404L26.9491 21.2282C26.8615 21.2282 26.7738 21.2282 26.73 21.2282C26.73 21.1843 26.73 21.1404 26.73 21.0965C26.8615 20.7452 27.0367 20.4378 27.212 20.1304C27.3434 19.9108 27.5625 19.6912 27.7378 19.4716L28.0007 19.1642L28.176 18.9007C28.3512 18.6812 28.5265 18.4177 28.7018 18.1981C28.7894 18.1103 28.8332 17.9785 28.9209 17.8907C29.0085 17.759 29.0523 17.6711 29.1399 17.5394C29.4905 17.1003 29.7534 16.6172 29.9286 16.1341L29.9725 16.0024C29.9725 15.9146 30.0163 15.8267 30.0601 15.7828C30.4544 15.1241 30.5421 14.3337 30.323 13.5871C30.1915 13.0601 29.8848 12.621 29.4028 12.4014C28.877 12.0501 28.2198 11.9184 27.6063 12.0501C27.0805 12.1819 26.5986 12.4893 26.3357 12.9284L26.248 13.1041C26.0289 13.4554 25.8537 13.8067 25.6346 14.1141C25.1964 14.8606 24.6706 15.5193 24.0572 16.1341C23.7066 16.3976 23.4437 16.6611 23.137 16.8368C22.6988 17.1881 22.2607 17.4516 21.9101 17.6711C21.7349 17.759 21.6034 17.8468 21.4282 17.8907C21.2967 17.9346 21.2091 17.9785 21.0776 18.0225C20.4642 18.2859 19.8069 18.5055 19.1497 18.6812C18.2733 18.9007 17.397 19.0764 16.5207 19.2521L16.2578 19.3399C16.0387 19.3399 15.8196 19.4716 15.732 19.6912C15.6443 19.9108 15.6881 20.1304 15.8196 20.306C15.9072 20.4817 16.1263 20.5695 16.3016 20.5256C16.5207 20.4817 16.7836 20.4817 17.0026 20.4378L17.397 20.3499C18.2733 20.2182 19.1059 19.9986 19.9384 19.7351C20.7709 19.4716 21.6034 19.1203 22.3921 18.7251C23.0932 18.3299 23.7066 17.8907 24.3201 17.3198C24.6268 17.0563 24.9335 16.7489 25.1964 16.4415L25.284 16.3537C25.5031 16.1341 25.7222 15.8707 25.8975 15.5633C26.248 15.0802 26.5986 14.5093 27.0367 13.7628C27.2996 13.2358 27.8692 12.9723 28.4389 13.1041H28.5265C28.7456 13.148 28.9647 13.2358 29.0961 13.3675C29.4028 13.7189 29.5343 14.2019 29.4028 14.6411C29.4028 14.7289 29.359 14.8167 29.359 14.8606C29.359 14.9045 29.359 14.9485 29.3152 14.9924C29.2714 15.0363 29.2714 15.1241 29.2714 15.2119C29.2714 15.3437 29.2276 15.4754 29.1838 15.6072C29.0085 16.0024 28.7894 16.3976 28.5265 16.7929C28.2198 17.2759 27.8692 17.759 27.5625 18.1981C27.3873 18.4177 27.212 18.6373 27.0805 18.8568L26.7738 19.296L26.6424 19.4716C26.4671 19.6912 26.2918 19.9547 26.1166 20.1743C25.9851 20.3938 25.8975 20.6134 25.766 20.833L25.7222 20.8769C25.6346 21.0965 25.5031 21.36 25.4155 21.6234C25.3717 21.7552 25.3717 21.8869 25.4593 22.0186C25.5469 22.1504 25.6784 22.1943 25.8537 22.1943H25.9413C26.1604 22.1943 26.3357 22.1943 26.5547 22.1504C26.9053 22.1065 27.2558 22.0626 27.6502 21.9748C27.7378 21.9748 27.8254 21.9308 27.8692 21.8869C27.9131 21.843 28.0007 21.843 28.0445 21.843C28.3951 21.7991 28.7456 21.7552 29.1838 21.7113C29.5343 21.6674 29.841 21.5795 30.1915 21.4917C30.5421 21.4039 30.8488 21.316 31.1993 21.2721C31.4184 21.2721 31.5937 21.2282 31.8128 21.1404L32.0757 21.0965L32.3824 21.0086C32.6015 20.9647 32.8206 20.9208 33.0396 20.833C33.1711 20.7891 33.3025 20.7891 33.434 20.7452C33.5654 20.7012 33.7845 20.7012 33.9598 20.6573C34.3542 20.5695 34.7485 20.4378 35.1429 20.3499L35.9316 20.1304C36.3259 20.0425 36.7203 19.9108 37.1146 19.779L38.3415 19.4277L39.3493 19.1203C39.5246 19.0764 39.656 19.0325 39.8313 18.9886C40.1818 18.9447 40.5323 18.9447 40.8391 18.9447H41.0143C41.2772 18.9447 41.4963 19.0764 41.6278 19.296C41.7592 19.5156 41.803 19.779 41.7592 20.0425C41.7154 20.3938 41.5401 20.7012 41.2772 20.8769C41.0143 21.0965 40.7076 21.2282 40.4447 21.4039C39.6998 21.7552 39.0426 22.0186 38.4291 22.2382C38.0348 22.37 37.5966 22.5017 37.2023 22.6334L36.545 22.8091C35.7563 23.0287 34.9676 23.2922 34.1789 23.5117C33.3902 23.7313 32.6891 23.907 31.9442 24.1265L30.9802 24.39L30.8926 24.4339C30.805 24.4339 30.6735 24.4778 30.5859 24.5218C30.3668 24.6535 30.2792 24.917 30.4106 25.1366C30.4544 25.2244 30.5421 25.3122 30.6735 25.3561C30.805 25.3561 30.9803 25.3561 31.1117 25.3561H31.1993L31.5499 25.3122C31.8566 25.2683 32.1195 25.2683 32.4262 25.1805C33.1273 25.0487 33.7845 24.8731 34.4418 24.6974C35.6248 24.39 36.9832 23.9948 38.2977 23.5996C38.8235 23.4239 39.3493 23.2482 39.8751 23.0726C40.1818 22.9408 40.4885 22.853 40.8391 22.7213C41.0581 22.6334 41.321 22.5456 41.5401 22.4578C41.8907 22.2821 42.2412 22.1504 42.6356 22.0626H42.7232C42.9423 21.9748 43.2052 21.9748 43.4681 21.9748C43.8186 22.0626 44.0377 22.37 43.9939 22.7213C43.9501 23.0726 43.7748 23.38 43.5119 23.5996C43.0299 23.9948 42.5479 24.3461 41.9783 24.6096C41.1458 25.0048 40.5323 25.2683 39.9189 25.5318C38.8235 25.9709 37.5528 26.454 36.2821 26.8931C35.8001 27.0688 35.2743 27.2005 34.7485 27.2884L34.1789 27.4201C33.7845 27.5079 33.3464 27.5958 32.9082 27.6836L32.1195 27.8153L31.4622 27.9471C31.1993 27.991 31.0241 28.2545 31.0241 28.518C31.0679 28.7815 31.287 29.001 31.5499 28.9571C31.5499 28.9571 31.5499 28.9571 31.5937 28.9571H31.8128C32.1195 28.9571 32.4262 28.9132 32.7767 28.8693C33.3464 28.7815 33.8722 28.6936 34.398 28.6058C35.1429 28.4301 35.9316 28.2545 36.7203 28.0349C37.3775 27.8593 38.0348 27.5958 38.692 27.3762C39.1302 27.2005 39.6122 27.0249 40.0504 26.8492L40.5323 26.6296L40.7952 26.4979C41.1458 26.3222 41.4963 26.2344 41.8469 26.1466C42.0659 26.1027 42.285 26.1905 42.4603 26.2783C42.5917 26.3662 42.6794 26.4979 42.6794 26.6296C42.7232 26.981 42.5917 27.3762 42.3288 27.5958C41.8907 28.0349 41.3649 28.4301 40.7952 28.6936C40.3571 28.9571 39.7875 29.2206 39.2178 29.4841C38.5606 29.7915 38.0348 30.0111 37.5528 30.1428C36.7203 30.4502 35.8001 30.7137 34.8361 30.9772C34.2665 31.1528 33.6969 31.2846 33.1273 31.3724L32.952 31.4163C32.6891 31.4602 32.4262 31.5041 32.1195 31.592L31.6375 31.6798H31.5937C31.4622 31.7237 31.3308 31.7237 31.1993 31.7676C30.9802 31.8555 30.805 32.075 30.8926 32.3385C30.9364 32.602 31.1555 32.7337 31.4184 32.6898H31.5061C31.6813 32.6898 31.9004 32.6459 32.0757 32.6459L32.5577 32.602C32.952 32.5581 33.3902 32.5142 33.8284 32.4263C34.7923 32.2068 35.7563 31.9433 36.4574 31.7237C37.509 31.4602 38.5168 31.1089 39.5246 30.6698C39.9189 30.538 40.3571 30.4502 40.7514 30.4502C40.9705 30.4941 41.1458 30.6259 41.1896 30.8015C41.2334 31.0211 41.1896 31.2846 41.0581 31.4602C40.7514 31.9433 40.3133 32.2946 39.7875 32.5142C39.174 32.8216 38.5606 33.0411 38.1224 33.2168C37.2899 33.5242 36.4574 33.7877 35.7563 34.0073C35.1429 34.2268 34.6171 34.3586 34.1789 34.4903C33.3464 34.7099 32.47 34.9295 31.5061 35.1051C31.1993 35.1929 30.8926 35.1929 30.5859 35.2369L30.1915 35.2808L29.7534 35.3686C29.4028 35.4125 29.0961 35.4564 28.7894 35.5443C28.658 35.5882 28.5703 35.5882 28.4389 35.5443C28.2636 35.5003 28.0445 35.5003 27.8692 35.5443C27.6063 35.5882 27.2996 35.6321 27.0367 35.6321C26.8615 35.6321 26.6862 35.6321 26.4671 35.6321C26.3357 35.6321 26.2042 35.6321 26.0728 35.6321C25.9413 35.6321 25.766 35.5882 25.6346 35.5882C25.4155 35.6321 25.1526 35.5882 24.9335 35.5443C24.8021 35.5003 24.6706 35.5003 24.5392 35.4564L23.7066 35.4125C23.3123 35.3686 22.9179 35.3247 22.5236 35.3247C22.0416 35.2808 21.6034 35.2369 21.2091 35.149C20.4204 35.0173 19.5878 34.8416 18.7991 34.666C18.4048 34.5781 18.0543 34.4903 17.6599 34.4025L17.1779 34.2707L16.9588 34.2268C16.7836 34.1829 16.6083 34.139 16.433 34.0951H16.3892C15.9949 34.0951 15.6443 34.139 15.25 34.2268C14.5051 34.3586 13.7164 34.5781 12.9277 34.7538C12.139 34.9295 11.3941 35.1929 10.6492 35.3686L10.4301 35.4125C10.1234 35.5003 9.77288 35.6321 9.46616 35.7199L9.11563 35.8077L7.31913 36.3786C7.2315 36.4225 7.14386 36.4665 7.05623 36.4665C6.9686 36.5104 6.88096 36.5543 6.74951 36.5543C6.53043 36.5982 6.31134 36.686 6.09226 36.7299L5.65409 36.8617C5.47882 36.9056 5.30355 36.9495 5.12828 37.0373L5.04065 37.0813C4.82157 37.1691 4.60248 37.213 4.33958 37.3008C4.20813 37.3447 4.07668 37.4326 4.03286 37.5643C3.98905 37.6521 3.98905 37.7839 4.03286 37.8717C4.12049 38.0474 4.29576 38.1352 4.47103 38.1352H4.55866C5.04065 38.0035 5.56645 37.8717 6.04844 37.74C6.31134 37.6521 6.61806 37.5643 6.88096 37.4765L7.40676 37.3008L7.4944 37.2569C7.80112 37.1691 8.06402 37.0813 8.37074 36.9934C8.50219 36.9495 8.63364 36.9495 8.76509 36.9056C8.89654 36.9056 9.02799 36.8617 9.15944 36.8178C9.29089 36.7739 9.37853 36.7739 9.46616 36.7299C9.5538 36.686 9.64143 36.686 9.72906 36.6421C9.94815 36.5982 10.1672 36.5543 10.4301 36.5104C10.693 36.4665 10.9121 36.4225 11.1312 36.3347L12.4457 35.9834L13.9355 35.6321C14.1545 35.5882 14.4174 35.5443 14.6365 35.5003C14.8556 35.4564 15.1623 35.4125 15.4252 35.3247C15.8634 35.1929 16.3454 35.1929 16.7836 35.3247C17.3094 35.4564 17.7914 35.5882 18.3172 35.7199C18.843 35.8517 19.3688 35.9395 19.8069 35.9834C20.1575 36.0273 20.508 36.0712 20.9024 36.1151C20.99 36.1151 21.1214 36.1151 21.2091 36.1151H21.5158L22.1292 36.203C22.4798 36.2469 22.8303 36.2908 23.1808 36.3347C23.619 36.3786 24.0572 36.3786 24.4515 36.3786C24.583 36.3786 24.7144 36.3786 24.8459 36.3347C24.9773 36.3347 25.065 36.2908 25.1964 36.2908C25.3279 36.2908 25.4593 36.2908 25.5908 36.3347L25.8537 36.3786C25.9413 36.3786 26.0289 36.3786 26.1166 36.3786H27.1244H27.4749H27.9131H28.0445C28.1322 36.3786 28.176 36.3786 28.2636 36.3786C28.5265 36.3786 28.7456 36.3786 29.0085 36.3347C29.1399 36.3347 29.2714 36.3347 29.359 36.2908L29.9725 36.203H30.0163V36.2469L30.4983 36.203L31.0679 36.1151H31.287C31.4184 36.1151 31.5499 36.1151 31.6375 36.0712C31.8128 36.0273 32.0319 35.9834 32.2071 35.9834L32.5577 35.9395L33.0396 35.8517C33.3902 35.8077 33.7407 35.7638 34.0913 35.676C34.8361 35.5003 35.6248 35.2808 36.4574 35.0173C37.2023 34.7977 37.9033 34.5342 38.4729 34.3147L38.7797 34.2268C39.3931 34.0512 39.9627 33.7877 40.5323 33.5242C41.1896 33.1729 41.7592 32.6898 42.1536 32.075C42.3727 31.7676 42.4603 31.3724 42.5041 30.9772C42.5041 30.4941 42.285 30.0111 41.9345 29.6597C41.8907 29.6597 41.8907 29.6158 41.8907 29.5719C41.8907 29.528 41.9345 29.528 41.9783 29.4841L42.1974 29.3523L42.3727 29.2206C43.0299 28.8693 43.5119 28.2984 43.8186 27.5958C44.0377 27.1566 44.0377 26.6296 43.8624 26.1905C43.7748 25.9709 43.6433 25.7953 43.5119 25.6196L43.3804 25.444C43.2928 25.3561 43.3366 25.3122 43.4243 25.2683L43.5119 25.1805C43.9062 24.917 44.2568 24.6096 44.5635 24.2583C45.1331 23.5556 45.2208 22.5456 44.7388 21.7113Z" fill="white"/>
</svg>
