<svg width="50" height="50" viewBox="0 0 50 50" fill="none" xmlns="http://www.w3.org/2000/svg">
<mask id="mask0_1_125" style="mask-type:luminance" maskUnits="userSpaceOnUse" x="2" y="6" width="45" height="38">
<path d="M47 6H2V43.5H47V6Z" fill="white"/>
</mask>
<g mask="url(#mask0_1_125)">
<path d="M29.7131 28.0351C29.984 27.4988 30.1194 26.873 30.0742 26.292V26.2473C30.0291 25.9344 29.984 25.5768 29.8937 25.264C29.7131 24.6829 29.3521 24.1466 28.8556 23.7443C28.1785 23.1633 27.321 22.8504 26.4634 22.8504C25.7864 22.8057 25.1093 22.9845 24.5677 23.3867C23.9809 23.789 23.5296 24.3254 23.2136 24.9511C22.8977 25.6215 22.8074 26.3814 22.9428 27.0965C23.0331 27.767 23.3942 28.4374 23.9358 28.8844L24.0712 29.0184C24.1615 29.1078 24.2518 29.1972 24.3872 29.2866C24.5677 29.4207 24.7031 29.5101 24.8837 29.5995C25.0191 29.6442 25.1545 29.6889 25.2899 29.7336L25.5155 29.823C25.651 29.8677 25.7412 29.9571 25.7412 30.0912C25.6961 30.404 25.651 30.7616 25.6058 31.0745C25.4704 32.0131 25.1545 32.8623 24.7482 33.7115C24.7031 33.8009 24.658 33.8456 24.6128 33.935C24.5226 34.1138 24.4323 34.2926 24.342 34.4267C23.8907 34.9183 23.4393 35.41 22.9428 35.8569C22.5817 36.1698 22.1304 36.438 21.7242 36.7062C21.4082 36.885 21.0923 37.0637 20.7763 37.1978L20.5055 37.3319C20.4604 37.3766 20.3701 37.3766 20.325 37.3766H20.2347L20.0542 37.4213L19.8736 37.466L19.5577 37.5554C19.3771 37.6001 19.1515 37.6448 18.9709 37.6448C18.5647 37.6448 18.1585 37.6448 17.7523 37.6001C17.3009 37.5554 16.8947 37.5107 16.5336 37.466C15.5858 37.2872 14.683 36.9296 13.8706 36.438C13.1484 36.0357 12.4714 35.4994 11.9298 34.8289C11.659 34.5161 11.4333 34.2032 11.2076 33.8903C11.0271 33.5327 10.8465 33.1752 10.7111 32.8176C10.5757 32.4153 10.4403 32.0131 10.35 31.6108C10.2598 31.2979 10.2146 30.9404 10.1695 30.5828C10.1695 30.5381 10.1695 30.4934 10.2146 30.4934C10.2598 30.4487 10.3049 30.404 10.35 30.404H10.3952C10.5306 30.404 10.6209 30.3593 10.7563 30.3593C11.2528 30.1805 11.7944 30.0465 12.2909 29.8677C12.5165 29.7783 12.7422 29.6889 12.9679 29.5548C13.1484 29.4654 13.2839 29.3313 13.4644 29.1972L13.6449 29.0631C14.1414 28.7056 14.5928 28.348 14.9539 27.901C15.3149 27.4541 15.676 27.0071 15.9468 26.4708C16.1274 26.0685 16.2628 25.7109 16.3982 25.3087V25.2193C16.5336 24.7276 16.6239 24.1913 16.6239 23.6996C16.6239 23.5208 16.6239 23.342 16.669 23.1633C16.669 22.761 16.669 22.314 16.669 21.9118C16.669 21.733 16.669 21.5542 16.669 21.3754V20.1686C16.669 19.7217 16.669 19.23 16.669 18.783C16.669 18.3361 16.669 17.9785 16.669 17.5763C16.669 17.2634 16.669 16.9058 16.669 16.5929C16.669 16.5482 16.669 16.5035 16.669 16.4588C16.669 16.3695 16.669 16.3248 16.669 16.2354C16.669 15.9225 16.669 15.6096 16.6239 15.2521C16.6239 15.2074 16.6239 15.1627 16.5787 15.118C16.6239 14.8051 16.669 14.5369 16.6239 14.2241C16.6239 14.09 16.6239 14.0006 16.6239 13.8665C16.6239 13.6877 16.6239 13.4642 16.5787 13.2854C16.4433 12.4362 16.0371 11.6764 15.4504 11.14C15.0441 10.7825 14.5476 10.4696 14.0512 10.2461C14.006 10.2014 13.9157 10.2014 13.8706 10.1567C13.8255 10.0226 13.7352 9.93322 13.5998 9.79913L13.4193 9.62035C13.1033 9.30748 12.652 9.17339 12.2006 9.26278C11.3882 9.39687 10.8917 10.1567 11.0271 10.9612C11.1173 11.4529 11.4784 11.8999 11.9749 12.0786C12.4714 12.3021 13.013 12.168 13.4193 11.8105C13.5547 11.6764 13.7352 11.6317 13.9157 11.7211C14.1414 11.8105 14.322 11.9446 14.5476 12.1233C14.6379 12.2127 14.7282 12.3021 14.7733 12.3915C14.8636 12.4809 14.9087 12.5703 14.999 12.6597C15.1795 12.8385 15.2698 13.0173 15.3149 13.2854C15.3601 13.643 15.4052 14.0006 15.4052 14.3581C15.4052 15.5649 15.4504 16.8164 15.4504 18.0232C15.4504 18.1573 15.4504 18.2467 15.4504 18.3808C15.4504 18.5149 15.4504 18.6043 15.4504 18.7383C15.4504 19.3194 15.4504 19.9451 15.4504 20.5709C15.4504 20.6603 15.4504 20.7944 15.4504 20.8838C15.4504 20.9732 15.4504 21.1072 15.4504 21.2413C15.4504 21.5542 15.4504 21.8671 15.4052 22.1799C15.4052 22.4034 15.4052 22.6269 15.3601 22.8951C15.3601 23.0292 15.2698 23.1633 15.1344 23.1633L14.0512 23.4314L13.6901 23.5208C13.4193 23.6102 13.1936 23.6549 12.9228 23.6996C12.336 23.789 11.8395 23.8784 11.343 23.9231C10.666 23.9678 9.98897 24.0125 9.17653 24.0125C8.95085 24.0125 8.72518 24.0125 8.45436 23.9678L8.13841 23.9231H7.82247C7.59679 23.9231 7.32598 23.8784 7.1003 23.8784H7.01003C6.51354 23.8337 6.06219 23.7443 5.5657 23.6549C5.20461 23.5655 4.84353 23.4761 4.52758 23.342L3.89569 23.1633C3.71515 23.1186 3.62487 22.9398 3.62487 22.8057C3.57974 22.1799 3.5346 21.5989 3.5346 21.0178C3.5346 20.6603 3.5346 20.3027 3.5346 19.9898C3.5346 19.9451 3.5346 19.8557 3.5346 19.8111C3.5346 19.7217 3.5346 19.6323 3.5346 19.4982C3.5346 19.3641 3.5346 19.1853 3.48947 19.0512C3.44433 18.9171 3.44433 18.649 3.44433 18.4702C3.44433 18.2914 3.44433 18.0679 3.44433 17.8444C3.44433 17.7103 3.44433 17.5763 3.44433 17.4422C3.44433 17.3081 3.44433 17.0399 3.44433 16.8611V15.5202C3.44433 15.4755 3.44433 15.4308 3.44433 15.3861C3.44433 15.3415 3.44433 15.2968 3.44433 15.2521C3.44433 15.2074 3.44433 15.0733 3.44433 15.0286C3.44433 14.8498 3.44433 14.671 3.44433 14.4922C3.3992 14.1794 3.44433 13.8665 3.5346 13.5983C3.71515 12.9726 4.12136 12.4362 4.66299 12.0786C5.11434 11.8105 5.11434 11.8105 5.47543 12.0786C6.06219 12.4809 6.87462 12.3915 7.32598 11.8552C7.64193 11.5423 7.7322 11.0953 7.68706 10.6931C7.64193 10.3355 7.46138 10.0226 7.19057 9.79913C6.55868 9.12869 5.61083 9.26278 5.11434 9.88853C5.11434 9.93322 5.06921 9.93322 5.06921 9.97792C4.97894 10.0673 4.9338 10.112 4.84353 10.1567C4.75326 10.2014 4.66299 10.2461 4.52758 10.2908L4.25677 10.3802C3.98596 10.5143 3.76028 10.6484 3.5346 10.8718L3.48947 10.9612C3.12838 11.2741 2.81244 11.6317 2.6319 12.0786C2.27081 12.8832 2.09027 13.7324 2.13541 14.6263C2.13541 14.8051 2.13541 14.9839 2.13541 15.2074C2.13541 15.4308 2.13541 15.4755 2.13541 15.6096V16.0119C2.13541 16.4142 2.18054 16.8164 2.13541 17.2187C2.13541 17.5316 2.13541 17.8444 2.09027 18.1573C2.09027 18.3808 2.04514 18.6043 2.04514 18.8277C2.04514 18.9171 2.04514 19.0512 2.04514 19.1406C2.04514 19.23 2.04514 19.3194 2.04514 19.4088C2.04514 19.6323 2.04514 19.8111 2 20.0345C1.95486 20.258 1.95486 20.5262 1.95486 20.7497C1.95486 21.6436 1.90973 22.5375 1.90973 23.4314C1.90973 23.6102 1.90973 23.789 1.95486 23.9678V24.1913C1.95486 24.3701 2 24.5935 2.04514 24.7723C2.31595 26.1579 2.99298 27.4541 3.98596 28.4821C4.48245 29.0184 5.02407 29.4207 5.65597 29.7783C6.15246 30.0018 6.64895 30.2252 7.19057 30.404C7.50652 30.4934 7.8676 30.5828 8.18355 30.6275L8.45436 30.6722C8.4995 30.6722 8.58977 30.7169 8.58977 30.7616C8.58977 30.851 8.58977 30.9404 8.6349 30.9851C8.6349 31.1192 8.68004 31.2086 8.68004 31.3426L8.72517 31.5214C8.81545 31.9237 8.95085 32.326 9.08626 32.7729C9.2668 33.354 9.53761 33.8903 9.80842 34.382C10.1244 34.8736 10.4403 35.41 10.8014 35.8569C11.2528 36.438 11.7944 36.9743 12.3811 37.4213C12.9679 37.8683 13.5998 38.2258 14.2768 38.494C15.2698 38.8963 16.3079 39.1198 17.346 39.1644L17.7974 39.1198C18.1133 39.0751 18.4293 39.0751 18.7452 39.0304C19.3771 38.941 19.8736 38.8516 20.325 38.7622C20.5055 38.7175 20.6861 38.6728 20.8215 38.5834L21.002 38.494L21.3631 38.3599C21.679 38.2258 21.995 38.0917 22.3109 37.9577C22.5366 37.8236 22.7623 37.6895 22.9428 37.5554L23.2588 37.3319C23.7101 37.019 24.1615 36.6615 24.5226 36.2592L24.7934 35.9016C25.1093 35.5441 25.3801 35.1418 25.6961 34.7395C26.1926 34.0244 26.5537 33.2646 26.7793 32.46C26.9599 31.7449 27.0953 31.0298 27.1404 30.2699C27.1404 30.1358 27.2307 30.0018 27.3661 30.0018C28.4493 29.6442 29.2618 28.9737 29.7131 28.0351ZM28.8556 26.2026C28.8556 26.4261 28.8556 26.6496 28.7653 26.873C28.6299 27.5882 28.1334 28.2139 27.4564 28.5268C27.1856 28.6609 26.9147 28.7056 26.5988 28.7503H26.5085C25.9669 28.8397 25.3801 28.6609 24.9288 28.3033C24.7031 28.1245 24.4774 27.901 24.342 27.6776C24.1615 27.4094 24.0261 27.1412 23.9358 26.7836C23.9358 26.6942 23.9358 26.6496 23.9358 26.5602V26.4708C23.9358 25.845 24.1615 25.264 24.5226 24.7723C24.7031 24.5935 24.8836 24.4594 25.0642 24.3254L25.1093 24.2807C25.3801 24.0572 25.7412 23.9231 26.1023 23.8784C26.2828 23.8784 26.5085 23.8784 26.6891 23.8784H26.8245C27.2758 23.9678 27.7272 24.1913 28.0431 24.5041C28.3591 24.7723 28.5396 25.1299 28.6299 25.4875C28.6299 25.5322 28.675 25.6215 28.675 25.6662C28.8556 25.9344 28.8556 26.0685 28.8556 26.2026ZM12.7874 28.2139C12.336 28.5715 11.7944 28.795 11.2076 28.9291C10.8014 29.0184 10.3952 29.0631 10.0792 29.1078L9.67302 29.1972C8.36409 29.1525 7.1003 28.7503 6.01705 27.9904C5.38515 27.5435 4.84353 26.9624 4.39218 26.292C4.03109 25.7109 3.80542 25.1299 3.67001 24.4594C3.67001 24.4147 3.67001 24.4147 3.67001 24.3701H3.71515H3.76028L4.34704 24.5041C4.84353 24.5935 5.34002 24.7276 5.83651 24.7723L6.28786 24.817C6.73922 24.9064 7.19057 24.9064 7.64193 24.9064C7.95787 24.9064 8.27382 24.9064 8.58977 24.9511C8.86058 24.9511 9.13139 24.9958 9.35707 24.9958C9.8987 24.9958 10.4855 24.9958 11.0271 24.9064C11.5687 24.8617 12.1103 24.7723 12.652 24.6829L12.9679 24.6382C13.4193 24.5935 13.8706 24.5041 14.322 24.4147C14.4574 24.3701 14.5928 24.3701 14.7282 24.3254L14.9539 24.2807C14.999 24.2807 15.0441 24.2807 15.1344 24.2807H15.2247C15.2247 24.3254 15.2247 24.4147 15.2247 24.5041C15.0441 25.3981 14.6379 26.2473 14.0963 26.9624C13.7352 27.4094 13.2839 27.8563 12.7874 28.2139Z" fill="#B15126"/>
<path d="M35.671 43.1425C36.4383 43.366 37.2507 43.4554 38.0632 43.4554L38.5145 43.4107C38.8305 43.366 39.1464 43.366 39.4624 43.3213C40.3651 43.1872 41.2678 42.919 42.0802 42.4721C42.2156 42.3827 42.3962 42.2933 42.5316 42.2039C42.667 42.1145 42.7573 42.0698 42.8927 41.9804C43.4343 41.6676 43.9759 41.2653 44.4273 40.7736C44.7884 40.4161 45.0592 40.0585 45.3751 39.6562L45.5557 39.4328C45.9619 38.8517 46.2778 38.226 46.5035 37.5555L46.5938 37.3767C46.7743 36.9745 46.8646 36.5275 46.9097 36.0806C46.9097 35.9912 46.9097 35.9018 46.9549 35.8124C46.9549 35.7677 46.9549 35.6783 47 35.6336V35.4548C47.0451 35.1866 47.0451 34.9631 47.0903 34.695C47.1354 34.0692 47.0903 33.4435 46.9549 32.8624V32.5496C46.8195 31.7897 46.5938 31.0299 46.2327 30.3148C45.9619 29.689 45.6008 29.1527 45.1494 28.661C44.7432 28.2587 44.337 27.8565 43.9308 27.4989C43.6148 27.2754 43.2538 27.0519 42.8927 26.8732L42.4865 26.6497C42.1705 26.4262 41.8094 26.2474 41.4483 26.1133C40.7713 25.8898 40.0943 25.6664 39.3721 25.5323C39.011 25.4429 38.6048 25.4429 38.1986 25.3982L37.7924 25.3535C37.4764 25.3535 37.1605 25.3535 36.7994 25.4429C36.0321 25.577 35.2648 25.8005 34.5426 26.158C34.2718 26.2921 34.001 26.4262 33.7302 26.5603L33.2337 26.7838L33.1434 26.9179C33.008 26.9626 32.9177 27.0519 32.7823 27.1413C32.6018 27.3201 32.4213 27.4542 32.1956 27.633C31.7894 27.9459 31.4283 28.3034 31.0672 28.661C30.6158 29.1527 30.2548 29.689 29.8937 30.2701C29.5326 30.9405 29.2618 31.6556 29.0812 32.4155C28.9458 32.9965 28.8556 33.6223 28.8556 34.2033C28.8556 34.695 28.9007 35.1866 28.9458 35.5442C28.991 35.9018 29.0361 36.1699 29.1264 36.4828L29.1715 36.5722C29.3069 37.1086 29.4875 37.6002 29.7583 38.0919C29.8485 38.226 29.8937 38.4047 29.9839 38.5388C30.1194 38.807 30.2548 39.0752 30.4353 39.2987C30.5256 39.4328 30.6158 39.5668 30.7061 39.7009C31.2026 40.4161 31.7894 41.0865 32.5115 41.5782C32.6921 41.7123 32.8726 41.8016 33.0532 41.891L33.2337 41.9804L33.5045 42.1592C33.7753 42.2933 34.0461 42.4721 34.3621 42.6062C34.5878 42.6956 34.7683 42.785 34.994 42.8297L35.3099 42.919L35.4453 42.9637C35.4905 43.0531 35.5807 43.0978 35.671 43.1425ZM38.5597 41.4441C38.5597 41.2206 38.5145 40.9524 38.5145 40.7289C38.5145 40.6395 38.5145 40.5055 38.5145 40.4161C38.5145 40.3714 38.5145 40.282 38.5145 40.2373L38.5597 39.4775C38.5597 39.3434 38.5597 39.1646 38.5597 39.0305C38.5597 38.8964 38.5597 38.8517 38.5597 38.7623C38.5597 38.6729 38.5597 38.5835 38.5597 38.5388C38.5597 38.4941 38.5597 38.36 38.5597 38.226C38.5597 38.0919 38.5597 38.0025 38.5597 37.8684C38.5597 37.7343 38.5597 37.6002 38.5597 37.5108C38.5597 37.4214 38.5597 37.2873 38.5597 37.1533C38.5597 37.0192 38.5597 36.9298 38.5597 36.8404C38.5597 36.751 38.5597 36.6169 38.5597 36.4828C38.5597 36.2593 38.5597 36.0806 38.5597 35.8571C38.5597 35.6336 38.5597 35.4995 38.5597 35.3207C38.5597 35.0078 38.6048 35.0078 38.8305 34.9631C39.1464 34.9631 39.4172 34.9631 39.7332 35.0078C39.8686 35.0525 39.9137 35.0525 39.9589 35.276C40.0491 35.9912 40.2297 36.7063 40.5005 37.4214C40.8164 38.1366 41.1775 38.8517 41.6289 39.5221C41.8094 39.835 42.0351 40.1032 42.2608 40.3267L42.4413 40.5055C42.5316 40.5949 42.5767 40.7289 42.4865 40.8183C42.4413 40.863 42.4413 40.863 42.3962 40.9077C41.674 41.3994 40.8616 41.7569 40.004 41.9804C39.5978 42.0698 39.1916 42.1592 38.7853 42.2039C38.7402 42.2039 38.6951 42.2039 38.6048 42.2039C38.5597 42.2039 38.5597 42.1145 38.5597 42.0698V42.0251H38.6048L38.5597 41.4441ZM41.4483 36.304C41.4032 36.1252 41.3581 35.9465 41.3581 35.7677C41.3581 35.5889 41.2678 35.4548 41.2678 35.3207C41.2678 35.276 41.2678 35.1866 41.3129 35.1419C41.3581 35.0972 41.4032 35.0525 41.4935 35.0525H42.3059H42.6219C43.0732 35.0525 43.4794 35.0525 43.9308 35.0525C44.1113 35.0525 44.2919 35.0525 44.4724 35.0078C44.653 34.9631 44.8335 34.9631 45.014 34.9631C45.2397 34.9631 45.4654 34.9631 45.6911 35.0525C45.7813 35.0972 45.8265 35.0972 45.8265 35.2313V35.3654C45.7813 35.723 45.7362 36.0805 45.6459 36.3934C45.5105 37.0192 45.2848 37.5555 44.9689 38.0919C44.8335 38.2707 44.6981 38.4941 44.5627 38.6729C44.4273 38.8517 44.2467 39.1199 44.1113 39.3434C43.9759 39.5668 43.8405 39.7456 43.6148 39.8797C43.4343 39.9691 43.3892 39.9244 43.344 39.8797C42.9829 39.5221 42.667 39.1646 42.3962 38.7176C42.3059 38.5388 42.2156 38.36 42.1254 38.1813L41.8997 37.7343C41.674 37.332 41.5386 36.8404 41.4935 36.3934L41.4483 36.304ZM45.8265 33.8457C45.7813 33.8904 45.6911 33.9351 45.6459 33.8904H45.2397V33.8457H44.5175C44.1113 33.8457 43.7502 33.8457 43.344 33.8457C43.2086 33.8457 43.1183 33.8457 42.9829 33.8011C42.8475 33.7564 42.7121 33.7564 42.5767 33.7564C42.4413 33.7564 42.2608 33.7564 42.0802 33.7564H41.7192C41.5837 33.7564 41.4935 33.7564 41.3581 33.7117C41.3129 33.7117 41.2678 33.667 41.2678 33.6223V33.5776C41.2678 33.2647 41.3129 32.9965 41.3581 32.6836C41.4935 32.0132 41.7191 31.3875 42.0351 30.8064C42.3059 30.2701 42.6219 29.7784 43.0281 29.3314C43.0732 29.2867 43.1183 29.2421 43.2086 29.1527C43.2538 29.108 43.2989 29.0633 43.2989 29.0186C43.344 28.9739 43.3892 28.9739 43.4343 28.9292C43.4794 28.9292 43.5246 28.9739 43.5697 29.0186C44.0662 29.5102 44.5175 30.0913 44.8335 30.717C45.1043 31.2087 45.33 31.745 45.5557 32.2367C45.6911 32.639 45.7813 33.0412 45.8265 33.4435V33.5329C45.8716 33.7117 45.8716 33.801 45.8265 33.8457ZM42.4413 28.2587C42.3059 28.3928 42.2156 28.5716 42.0802 28.7504C41.8997 29.0186 41.674 29.2867 41.4935 29.5549C41.0873 30.1807 40.7713 30.8511 40.5005 31.5216C40.32 32.1026 40.1845 32.6836 40.0943 33.2647L40.0491 33.4882C40.004 33.7564 39.9589 33.8457 39.5526 33.8457H38.7853C38.6951 33.8457 38.6048 33.8011 38.6048 33.7117C38.6048 33.7117 38.6048 33.7117 38.6048 33.667C38.6048 33.5776 38.6048 33.4882 38.5597 33.3541C38.5597 33.2647 38.5145 33.1753 38.5145 33.0412C38.5145 32.9518 38.5145 32.8624 38.5145 32.7283C38.5145 32.639 38.5145 32.5496 38.5145 32.4155C38.5145 32.2814 38.5145 32.1026 38.5145 31.9685C38.5145 31.8344 38.5145 31.6109 38.5145 31.4322C38.5145 31.2534 38.5145 30.9852 38.5145 30.7617C38.5145 30.5382 38.5145 30.4041 38.5145 30.2254C38.5145 30.0466 38.5145 29.8231 38.5145 29.6443C38.5145 29.4655 38.5145 29.1527 38.5145 28.9292C38.5145 28.7057 38.5145 28.5269 38.5597 28.3481C38.6048 28.1693 38.6048 27.9459 38.6048 27.7671C38.6048 27.5883 38.6048 27.4542 38.6048 27.3201C38.6048 27.186 38.6048 27.0966 38.6048 27.0072C38.6048 26.9179 38.6048 26.8285 38.6499 26.7391C38.6499 26.6497 38.7402 26.605 38.8305 26.605H38.8756C39.1464 26.605 39.3721 26.6497 39.6429 26.6944L39.8686 26.7391C40.0943 26.7838 40.32 26.8285 40.5456 26.8732C41.0421 27.0072 41.4935 27.2307 41.9448 27.5436C42.0351 27.5883 42.1254 27.633 42.2156 27.6777C42.3059 27.7224 42.351 27.7671 42.3962 27.8118C42.5316 28.08 42.5316 28.1693 42.4413 28.2587ZM30.1645 35.276C30.1194 35.2313 30.1194 35.1419 30.1645 35.0972C30.2548 35.0078 30.345 35.0078 30.4353 35.0078H31.1575H31.2477C31.4283 35.0078 31.654 35.0525 31.8345 35.0525C32.015 35.0525 32.2859 35.0525 32.5115 35.0078L33.008 34.9631C33.0532 34.9631 33.1434 34.9631 33.1886 34.9631C33.2788 34.9631 33.324 34.9631 33.4142 34.9631H33.8205C34.001 34.9631 34.1815 34.9631 34.3621 34.9631C34.4975 34.9631 34.5878 35.0078 34.7232 35.0525C34.7683 35.0972 34.7683 35.1419 34.7683 35.1866C34.7232 35.4995 34.678 35.8571 34.5878 36.1699L34.5426 36.3487C34.4975 36.5275 34.4524 36.751 34.4072 36.9298C34.3621 37.1086 34.2718 37.2873 34.1815 37.4661L34.0913 37.6002C33.9107 37.9578 33.685 38.36 33.4594 38.7176C33.2337 39.0305 33.008 39.3434 32.7372 39.6562C32.6469 39.7456 32.5567 39.835 32.4213 39.9244C32.2859 39.8797 32.1504 39.7903 32.1053 39.6562C32.015 39.5221 31.8796 39.4328 31.7894 39.2987C31.338 38.8517 30.9769 38.3154 30.7964 37.7343C30.7512 37.6002 30.7061 37.4661 30.6158 37.332C30.5256 37.198 30.4804 37.0192 30.4353 36.8851C30.345 36.5722 30.2999 36.2146 30.2548 35.8571C30.2096 35.723 30.2096 35.5442 30.1645 35.4548C30.2096 35.3654 30.1645 35.3207 30.1645 35.276ZM37.341 26.9626C37.341 27.0966 37.341 27.2754 37.341 27.4542V27.9012H37.3862V30.0019C37.3862 30.1807 37.3862 30.3595 37.3862 30.4935V31.1193C37.3862 31.9238 37.3862 32.6836 37.4313 33.4882C37.4313 33.6223 37.3862 33.7117 37.2959 33.8011C37.2056 33.8457 37.1153 33.8904 37.0251 33.8904C36.9348 33.8904 36.8445 33.8904 36.7543 33.8904H36.3029C35.987 33.8904 35.8967 33.8457 35.8967 33.4882C35.8064 32.5049 35.5807 31.5216 35.1294 30.6276C34.8586 30.0913 34.5426 29.5996 34.2267 29.108L34.1364 29.0186C34.001 28.7951 33.8205 28.6163 33.5948 28.4375L33.5045 28.3481C33.4594 28.3034 33.4142 28.214 33.3691 28.1246C33.4142 28.08 33.4594 27.9906 33.5045 27.9906C34.001 27.6777 34.5426 27.4095 35.0842 27.186C35.5807 27.0072 36.0772 26.8732 36.5737 26.8285L36.8445 26.7838C36.9799 26.7838 37.1153 26.7838 37.2507 26.7838C37.341 26.8285 37.3862 26.9179 37.341 26.9626ZM34.5426 32.4602C34.5426 32.5943 34.5878 32.7283 34.678 32.8177C34.7683 32.9965 34.8134 33.1753 34.8134 33.3541V33.4882C34.8134 33.8011 34.8134 33.801 34.4524 33.8457H34.4072C34.3169 33.8457 34.1815 33.8457 34.0913 33.8457C34.001 33.8457 33.9107 33.8457 33.8205 33.8457H32.9177C32.4664 33.8457 32.0602 33.8457 31.6088 33.8457C31.2477 33.8457 30.8867 33.801 30.3902 33.7564C30.345 33.7564 30.345 33.7564 30.2999 33.7117C30.2999 33.667 30.2999 33.667 30.2999 33.6223V33.5776C30.345 33.0859 30.4353 32.5943 30.5707 32.1473C30.7964 31.3428 31.1575 30.5829 31.654 29.8678C31.8796 29.5102 32.1504 29.1974 32.4664 28.8845C32.4664 28.8845 32.5115 28.8398 32.5567 28.8398C32.6018 28.8398 32.6018 28.8845 32.6469 28.8845C32.8726 29.0633 33.0532 29.2421 33.1886 29.4208C33.5045 29.8231 33.7753 30.2701 34.0461 30.717C34.2267 31.3428 34.4523 31.8791 34.5426 32.4602ZM33.4594 40.7736C33.4594 40.6842 33.5045 40.6395 33.5496 40.5502C33.6399 40.4608 33.7302 40.3267 33.8205 40.2373C33.9107 40.1479 34.0913 39.9244 34.2267 39.7456C34.3621 39.5668 34.4523 39.4328 34.5426 39.254C34.6329 39.0752 34.7232 38.9411 34.8586 38.807C35.1294 38.4494 35.3099 38.0025 35.4002 37.5555L35.4905 37.332C35.6259 36.8851 35.7613 36.4381 35.8515 35.9912L35.9418 35.723C35.9418 35.6336 35.987 35.4995 35.987 35.4101C35.987 35.3654 35.987 35.3207 35.987 35.2313C36.0321 35.0078 36.0772 35.0078 36.2126 35.0078H36.3029C36.6188 35.0078 36.9799 35.0525 37.2959 35.0972C37.3862 35.0972 37.4313 35.1419 37.4764 35.3207C37.4764 35.4101 37.4764 35.4548 37.4764 35.5442V36.0359C37.4764 36.304 37.4764 36.6169 37.4764 36.8851C37.4764 37.0192 37.4764 37.1533 37.4764 37.2426C37.4764 37.332 37.4764 37.5555 37.4764 37.6896C37.4764 37.8237 37.4764 37.9131 37.4764 38.0025C37.4764 38.0919 37.4764 38.1813 37.4764 38.2707C37.4764 38.36 37.4764 38.4494 37.4764 38.5388C37.4764 38.6282 37.4764 38.7623 37.4764 38.8517C37.4764 38.9411 37.4764 39.2093 37.4764 39.3434C37.4764 39.4774 37.4764 39.5668 37.4764 39.7009V40.0138C37.4764 40.4608 37.5216 40.9524 37.5216 41.3994C37.5216 41.6229 37.5216 41.8463 37.4764 42.0251C37.4764 42.0698 37.4313 42.1592 37.3862 42.1592C37.341 42.2039 37.2959 42.2039 37.2507 42.2039L36.9799 42.1592C36.5286 42.1145 36.1224 42.0251 35.7161 41.891C35.0391 41.6676 34.3621 41.3547 33.7753 40.9524C33.4594 40.863 33.4142 40.8183 33.4594 40.7736Z" fill="#B15126"/>
<path d="M31.5186 25.1746H32.6018H33.2337C33.324 25.1746 33.4143 25.1746 33.5045 25.1299C33.5497 25.1299 33.6399 25.0852 33.6851 25.0852C34.4975 25.0852 35.2648 24.817 35.8967 24.3254C36.3932 23.9231 36.7543 23.4315 36.9348 22.8504C37.1154 22.2694 37.2056 21.6436 37.2056 21.0179V20.7944C37.2056 20.5262 37.2056 20.2134 37.2056 19.9452V19.6323C37.2056 19.3641 37.1605 19.1406 37.1154 18.8725V18.7831C37.0251 18.2914 36.9348 17.7998 36.7994 17.3528C36.7543 17.2187 36.7091 17.0846 36.7091 16.9058C36.6189 16.5483 36.4835 16.1907 36.3481 15.8331C36.2578 15.6097 36.1224 15.3862 36.0772 15.1627C35.987 14.9839 35.9418 14.7604 35.8516 14.5816C35.4002 13.7324 34.9037 12.9279 34.317 12.1681C34.1816 11.9446 34.001 11.7658 33.8205 11.5423L33.5948 11.4529C33.4594 11.3188 33.3691 11.1847 33.2337 11.0507L33.0983 10.8719C33.0532 10.8272 33.008 10.7825 32.9629 10.7378L32.6921 10.5143C32.4664 10.2908 32.2407 10.112 32.0151 9.88856C31.7894 9.66508 31.4734 9.4416 31.2478 9.26281L31.1123 9.12872C30.9318 8.94994 30.7513 8.81585 30.5256 8.68176C30.0742 8.36889 29.6229 8.05602 29.1715 7.78784C28.4945 7.34088 27.7272 6.98331 26.9148 6.71514C26.7342 6.67044 26.5537 6.62574 26.4183 6.53635C26.2829 6.44696 26.0572 6.44696 25.8766 6.40227C25.2447 6.22348 24.5677 6.08939 23.9358 6.08939L23.5296 6.0447C23.2136 6.0447 22.9428 6 22.6269 6C22.2658 6 21.8596 6 21.3631 6.0447C21.0472 6.0447 20.6861 6.08939 20.3701 6.17878C20.0542 6.26818 19.7382 6.40227 19.4223 6.58105C18.8806 6.89392 18.4293 7.38558 18.2036 7.96663C17.8877 8.68176 17.7523 9.48629 17.7523 10.2461V10.4249C17.7071 11.0507 17.7523 11.7211 17.8425 12.3468C17.8877 12.5703 17.9328 12.7491 17.9328 12.9726C17.9779 13.1961 18.0231 13.5089 18.0682 13.7324C18.1585 14.1794 18.2939 14.671 18.4744 15.118C18.7904 15.9672 19.1966 16.8164 19.7382 17.621C19.9188 17.8892 20.0993 18.1573 20.2798 18.3808L20.5055 18.6937L20.6409 18.9172C20.7763 19.0959 20.9117 19.2747 21.0471 19.4535C21.4985 19.9899 22.0401 20.5709 22.5366 21.0626C22.8526 21.3754 23.2136 21.6883 23.5747 22.0012L23.7553 22.1353C23.9358 22.2694 24.1615 22.3588 24.3872 22.3141C24.6128 22.2694 24.8385 22.0906 24.9288 21.8671L25.0191 21.733L24.8385 21.5542C24.7934 21.4648 24.7031 21.4201 24.658 21.3754L24.1615 20.9285C23.8455 20.705 23.5747 20.4368 23.3039 20.2133C23.0331 19.9899 22.672 19.5876 22.3561 19.2747C22.0853 19.0066 21.8596 18.7384 21.6339 18.4702C21.0923 17.7998 20.6409 17.0399 20.2798 16.2801C19.8736 15.4756 19.5577 14.5816 19.2869 13.7324C19.0612 12.8385 18.9258 11.9446 18.9258 11.0507C18.9258 10.6931 18.9709 10.3355 19.0161 9.97795C19.0612 9.53099 19.1063 9.17342 19.1966 8.81585C19.1966 8.72646 19.2417 8.63707 19.332 8.59237C19.3771 8.59237 19.4223 8.59237 19.4674 8.63707C19.5125 8.68176 19.5577 8.72646 19.6028 8.77116L20.0542 9.21812C20.5958 9.70977 21.0923 10.2014 21.5888 10.6931C21.9047 10.9613 22.1755 11.2741 22.4915 11.587L22.7623 11.8105C22.8977 11.9446 23.0782 12.034 23.3039 12.034C23.4393 12.034 23.5747 11.9446 23.665 11.8105C23.8004 11.587 23.8004 11.3188 23.665 11.14C23.6199 11.0507 23.5296 10.9613 23.4393 10.9166L23.3491 10.8272L20.325 7.69845C20.2798 7.65375 20.2798 7.60906 20.325 7.60906C20.5507 7.51967 20.8215 7.43027 21.0471 7.34088C21.4985 7.20679 21.995 7.1174 22.4915 7.1174H22.7623C23.2136 7.1174 23.665 7.1621 24.1164 7.20679C24.2969 7.25149 24.4774 7.25149 24.7031 7.29619C24.9288 7.34088 25.1996 7.38558 25.4704 7.43027C25.651 7.47497 25.8315 7.51967 25.9669 7.60906C26.1474 7.65375 26.2829 7.74315 26.4634 7.78784C26.9148 7.87723 27.321 8.05602 27.7272 8.2795C27.8626 8.36889 27.998 8.45828 28.1334 8.50298C28.2688 8.54768 28.4042 8.63707 28.5396 8.72646C28.9458 8.94994 29.3521 9.17342 29.7131 9.4416C29.8034 9.48629 29.8937 9.57569 29.984 9.66508C30.0742 9.75447 30.2096 9.84386 30.345 9.93325C30.7513 10.2461 31.1575 10.559 31.5186 10.9166L31.654 11.0507C32.1956 11.587 32.7372 12.1234 33.1886 12.7491C33.6399 13.3302 34.0461 13.9112 34.4072 14.537C34.5878 14.8498 34.7683 15.1627 34.9037 15.4756L35.0391 15.7884L35.0843 15.9225C35.1745 16.1013 35.2648 16.2801 35.3099 16.5036C35.4453 17.0399 35.6259 17.621 35.7162 18.202C35.8516 18.9619 35.9418 19.7217 35.8516 20.4815C35.8516 20.6603 35.8064 20.7944 35.8064 20.9732C35.8064 21.2414 35.7613 21.5095 35.7162 21.8224C35.671 22.0906 35.5807 22.3588 35.4905 22.5822C35.4905 22.5822 35.4905 22.6269 35.4453 22.6269C35.4002 22.6269 35.4002 22.6269 35.3551 22.5822C35.3099 22.5375 35.2197 22.4928 35.1745 22.4482L32.8275 20.2133L31.9699 19.4088C31.7442 19.1853 31.4283 19.1406 31.1575 19.3194C30.9318 19.5429 30.9318 19.8558 31.1575 20.0793C31.338 20.3027 31.5637 20.5709 31.7442 20.7944C32.0151 21.0626 32.2859 21.3754 32.6018 21.6436L33.2788 22.3141C33.6399 22.6716 34.001 23.0739 34.3621 23.4762L34.4072 23.5209C34.4524 23.5656 34.4524 23.5656 34.4524 23.6103C34.4524 23.6549 34.4524 23.6549 34.4072 23.6549C34.3621 23.6996 34.317 23.7443 34.2267 23.7443C33.8205 23.8337 33.3691 23.9678 32.8726 24.0125C32.6469 24.0572 32.4213 24.0572 32.1505 24.0572H31.6088H31.0672C30.9318 24.0572 30.7964 24.1019 30.7061 24.1913C30.6159 24.3254 30.6159 24.4595 30.6159 24.5936C30.8867 24.9958 31.2026 25.2193 31.5186 25.1746Z" fill="#B15126"/>
<path d="M30.2548 16.8611L30.345 16.7718L30.4804 16.6377C30.7061 16.4589 30.8867 16.2354 30.9769 15.9672C31.0221 15.7884 31.0221 15.565 30.8867 15.3862C30.7964 15.2521 30.661 15.1627 30.5256 15.1627C30.2548 15.118 29.984 15.2074 29.8034 15.3862C29.668 15.565 29.4875 15.699 29.3069 15.8778L29.0812 16.146C29.0361 16.2354 28.9007 16.2801 28.8104 16.2354C28.8104 16.2354 28.7653 16.2354 28.7653 16.1907C28.675 16.146 28.6299 16.0566 28.5848 16.0119L28.4945 15.9225C28.4042 15.8778 28.3591 15.7884 28.3591 15.699C28.3591 15.6097 28.4042 15.5203 28.4945 15.4756C28.5848 15.3862 28.7202 15.2521 28.8556 15.1627C28.991 15.0733 29.1264 14.8945 29.2618 14.7604C29.5326 14.4923 29.5777 14.09 29.3069 13.8218C29.1715 13.6877 29.0361 13.5983 28.8556 13.5983C28.675 13.5983 28.4945 13.643 28.3591 13.7771C28.0883 14.0006 27.8626 14.2688 27.6369 14.4923C27.5466 14.6263 27.3661 14.671 27.2307 14.5816C27.0953 14.4923 26.9599 14.4029 26.8696 14.2688C26.7793 14.2241 26.7793 14.09 26.8245 14.0006L27.0953 13.6877C27.2307 13.5089 27.4112 13.3749 27.5466 13.1961C27.682 13.062 27.7723 12.9279 27.8175 12.7491C27.9077 12.5703 27.8626 12.3915 27.7723 12.2128C27.682 12.034 27.5015 11.9446 27.321 11.9446C27.1404 11.9446 26.9599 11.9893 26.7793 12.1234C26.5085 12.3468 26.2377 12.5703 25.9669 12.8385C25.7864 13.0173 25.7412 13.0173 25.5155 12.8385C25.335 12.6597 25.1093 12.5256 24.8837 12.3915C24.7031 12.3022 24.5226 12.3022 24.342 12.3915C24.2066 12.4362 24.1163 12.5703 24.1163 12.7491C24.1163 12.9279 24.1615 13.062 24.2066 13.1961C24.2969 13.2855 24.342 13.3749 24.4323 13.4643L24.5677 13.5983C24.8385 13.9112 24.8385 13.9112 24.5677 14.2241C24.4774 14.3135 24.4323 14.3582 24.342 14.4476C24.2518 14.537 24.2066 14.5816 24.1163 14.671C23.9809 14.8051 23.8907 14.9392 23.8004 15.0733C23.665 15.3415 23.7553 15.699 24.0261 15.8778C24.2969 16.0566 24.658 16.0119 24.9288 15.7884L25.6961 15.0286C25.7412 14.8945 25.9218 14.8498 26.012 14.8945L26.0572 14.9392C26.1474 15.0286 26.1926 15.118 26.2828 15.2074C26.4183 15.4309 26.4183 15.4309 26.1926 15.6544L26.0572 15.7884C25.8766 15.9672 25.6961 16.146 25.5155 16.3248C25.2447 16.593 25.1996 16.9952 25.4253 17.3081C25.5607 17.4422 25.7412 17.5316 25.9218 17.5316C26.1023 17.5316 26.328 17.4869 26.4634 17.3528C26.5988 17.2187 26.6891 17.0846 26.8245 16.9505L27.0501 16.6824C27.1404 16.5483 27.2758 16.4589 27.4112 16.4589H27.5015C27.7272 16.5483 27.9077 16.7718 27.998 16.9952C27.8626 17.1293 27.7272 17.2634 27.5918 17.4422L27.2758 17.7104V17.9339C27.1404 18.0232 27.0501 18.1573 26.9599 18.2914C26.8245 18.5596 26.9147 18.9172 27.1856 19.0959C27.321 19.1853 27.4564 19.23 27.5918 19.23C27.7272 19.23 27.9077 19.1853 27.998 19.0959C28.2237 18.8725 28.4493 18.649 28.6299 18.4255C28.7202 18.2914 28.8556 18.202 28.991 18.1573C29.1264 18.1573 29.2618 18.2467 29.3069 18.3361C29.4423 18.4702 29.5777 18.6043 29.7131 18.7384C29.9388 18.9619 30.2548 18.9619 30.5256 18.7831C30.7513 18.6043 30.7964 18.2467 30.5707 18.0232C30.4804 17.8892 30.345 17.7551 30.2096 17.621L30.1194 17.5316C30.0291 17.4422 29.984 17.3081 29.984 17.174C30.0742 17.0846 30.1645 16.9952 30.2548 16.8611Z" fill="#B15126"/>
<path d="M26.4634 25.0405C26.1023 25.0405 25.7863 25.1746 25.5607 25.3981C25.2899 25.6663 25.1093 25.9791 25.1093 26.3814C25.1093 26.7837 25.2447 27.1412 25.5155 27.4094C25.7412 27.6776 26.0572 27.8117 26.4182 27.8117C26.7793 27.8117 27.1404 27.6329 27.4112 27.3647C27.682 27.0965 27.8174 26.739 27.8174 26.3814C27.8174 25.6663 27.2307 25.0852 26.4634 25.0405Z" fill="#B15126"/>
</g>
</svg>
