<svg width="50" height="50" viewBox="0 0 50 50" fill="none" xmlns="http://www.w3.org/2000/svg">
<mask id="mask0_276_1125" style="mask-type:luminance" maskUnits="userSpaceOnUse" x="2" y="10" width="45" height="31">
<path d="M47 10H2V40.4839H47V10Z" fill="white"/>
</mask>
<g mask="url(#mask0_276_1125)">
<path d="M11.5083 21.4202C11.5083 21.5551 11.4645 21.69 11.3768 21.7799L11.2016 22.0047C11.0263 22.2295 10.851 22.4543 10.7196 22.6791C10.5881 22.904 10.4128 23.0838 10.2814 23.3086L9.93087 23.8481L9.62415 24.2978C9.4927 24.4776 9.40506 24.6125 9.27361 24.7923L8.83544 25.4668C8.61636 25.7815 8.39727 26.0962 8.17819 26.4109C8.00292 26.6358 7.87147 26.8606 7.6962 27.0404C7.52093 27.2203 7.34567 27.49 7.21421 27.6699C7.12658 27.8048 7.03895 27.9846 6.95131 28.1195C6.86368 28.2993 6.81986 28.3443 6.73223 28.4792C6.64459 28.5691 6.60078 28.659 6.51314 28.7489L6.38169 28.8838C6.25024 29.0637 6.11879 29.2435 5.98734 29.4234C5.85589 29.6482 5.68062 29.873 5.46154 30.0978C5.28627 30.2776 5.111 30.5024 4.93573 30.7272L4.80428 30.8621C4.67283 31.042 4.54138 31.2218 4.40993 31.4017L4.0594 31.8962L3.53359 32.5707C3.22687 32.9753 2.92015 33.38 2.61344 33.8296C2 34.6839 1.78091 35.7629 2.04382 36.797C2.21908 37.5614 2.70107 38.2808 3.31451 38.7304C3.70886 39.0002 4.14703 39.225 4.62902 39.2699C4.80428 39.3149 5.02337 39.3598 5.19864 39.4048L5.63681 39.4947C5.89971 39.5397 6.20643 39.5847 6.46933 39.6296L6.81986 39.6746C6.95131 39.6746 7.08276 39.7195 7.21421 39.7195C7.34567 39.7195 7.38948 39.7645 7.47712 39.8095C7.60857 39.8544 7.74002 39.8994 7.87147 39.8994C8.30964 39.9893 8.70399 40.0343 9.14216 40.0792L9.7556 40.1692C10.1061 40.2141 10.4128 40.2591 10.7634 40.304C11.2016 40.349 11.6397 40.349 12.0779 40.349H12.8666C12.9981 40.349 13.1295 40.349 13.3048 40.349L14.1373 40.394L15.0136 40.4389H15.0574C15.1451 40.4389 15.2327 40.4389 15.2765 40.4389H15.4518H15.9338C16.1529 40.4389 16.372 40.4389 16.5472 40.4389C16.6349 40.4389 16.7663 40.4389 16.8539 40.394C16.9416 40.394 16.9854 40.349 17.073 40.349C17.2921 40.349 17.5112 40.349 17.7303 40.394C17.9494 40.4389 18.2561 40.4389 18.519 40.4389C18.7381 40.4389 18.9572 40.4389 19.1762 40.394L19.5268 40.349H19.702C19.7897 40.349 19.8773 40.349 19.9649 40.349L20.8413 40.2591L21.5424 40.1692L22.1558 40.1242L22.6816 40.0792L24.4343 39.9443C24.5657 39.9443 24.6972 39.8994 24.8286 39.8544C25.2668 39.7195 25.705 39.6296 26.1431 39.6746C26.2308 39.6746 26.2746 39.6746 26.3622 39.6296L26.6689 39.5847L27.3262 39.4947L27.7205 39.4498C28.0273 39.4048 28.2902 39.3598 28.5969 39.3149C29.2103 39.18 29.8238 38.9102 30.3057 38.4606C30.6125 38.1908 30.8315 37.8761 31.0506 37.5614C31.6203 36.4374 31.5326 35.1335 30.9192 34.0994C30.6563 33.6497 30.3496 33.2001 30.0428 32.7505L29.7799 32.4807C29.6047 32.211 29.3856 31.9412 29.2103 31.6714L28.816 31.1319L28.7722 31.042C28.5531 30.7272 28.334 30.4125 28.1149 30.1427L27.5015 29.1986C27.1509 28.6141 26.7566 28.0745 26.3622 27.535C25.5735 26.4109 24.7848 25.3319 24.0837 24.4326C23.777 24.028 23.4703 23.6233 23.1636 23.2187C22.8569 22.814 22.5501 22.4543 22.2872 22.0497C22.1558 21.8698 22.0243 21.69 21.9805 21.4652C21.9367 21.2404 21.9367 20.9706 21.9367 20.7458V20.6109C21.9367 20.4311 21.9367 20.2512 21.9367 20.0264C21.9367 19.8016 21.9367 19.6218 21.9367 19.397C21.9367 19.1722 21.9367 18.9473 21.9367 18.7225C21.9367 18.4977 21.9367 18.4078 21.9367 18.2729C21.9367 18.228 21.9805 18.183 21.9805 18.183C21.9805 18.138 21.9805 18.0481 21.9805 18.0032C21.9805 17.8233 21.9805 17.6435 21.9805 17.5086C21.9805 17.3737 21.9805 17.1489 21.9805 16.969C21.9805 16.5644 21.9805 16.1597 21.9805 15.8C21.9367 15.5752 22.0682 15.3504 22.2434 15.3055C22.2872 15.3055 22.2872 15.3055 22.3311 15.3055C22.6378 15.2155 22.9883 15.1706 23.295 15.0807L23.777 14.9907C24.259 14.9008 24.6534 14.631 24.8724 14.1814C25.223 13.4621 24.9601 12.6977 24.3028 12.383C23.9961 12.2481 23.6456 12.2031 23.295 12.2481C22.8569 12.2931 22.4187 12.338 21.8491 12.338C21.4547 12.338 21.0604 12.338 20.666 12.338H19.9211C19.3953 12.338 18.8695 12.338 18.3875 12.338H18.037C17.9055 12.338 17.8179 12.338 17.6865 12.338C17.555 12.338 17.4674 12.338 17.3359 12.338H16.8978H16.8101C16.2843 12.338 15.7585 12.338 15.1889 12.338C14.9698 12.338 14.7507 12.338 14.5316 12.383C14.3126 12.4279 14.1373 12.4279 13.9182 12.4279C13.6991 12.4279 13.5239 12.4279 13.3486 12.4279L12.5599 12.383C12.1655 12.383 11.815 12.338 11.4206 12.338C11.1139 12.338 10.851 12.338 10.5443 12.338H10.369V12.2031H9.97468C9.79941 12.2031 9.66796 12.2031 9.4927 12.2031C8.87926 12.338 8.44109 12.9675 8.48491 13.6419C8.52872 14.2264 8.96689 14.721 9.53651 14.8109C10.0623 14.9458 10.6319 15.0807 11.1577 15.2155C11.333 15.2605 11.4645 15.4404 11.4645 15.6652C11.4645 15.8 11.4206 15.9349 11.4206 16.0698C11.4206 16.2497 11.4206 16.3845 11.4645 16.5644C11.4645 16.7892 11.5083 17.059 11.5083 17.2838C11.5083 17.5086 11.5083 17.6884 11.4645 17.8683C11.4206 18.0481 11.4645 18.183 11.4645 18.3179C11.4645 18.4078 11.4645 18.5427 11.4645 18.6326C11.4645 18.7225 11.4645 18.7675 11.4645 18.8125V18.9923C11.4645 19.4869 11.5083 19.9815 11.5083 20.476C11.5083 20.6109 11.5083 20.7458 11.5083 20.8807C11.5083 21.0156 11.5083 21.2853 11.5083 21.4202ZM21.3671 14.3163C21.0166 14.3613 20.7975 14.721 20.8413 15.0807C20.8413 15.4853 20.8413 15.9349 20.8413 16.3396C20.8413 16.6543 20.8413 16.969 20.8413 17.2388C20.8413 17.5086 20.8413 17.7784 20.8413 18.0481C20.8413 18.3179 20.8413 18.5877 20.8413 18.9024C20.8413 19.2621 20.8413 19.6218 20.8413 19.9365C20.8413 20.1163 20.8413 20.2512 20.8851 20.4311C20.9289 20.7458 20.9289 21.0605 20.8413 21.3753C20.7098 21.7799 20.8413 22.2295 21.148 22.4993C21.3233 22.6791 21.4547 22.904 21.5862 23.1288C21.6738 23.2636 21.7176 23.3985 21.8053 23.4885C22.0243 23.8032 22.1996 24.1179 22.4187 24.4326L22.6816 24.8823L23.295 25.8714C23.3388 25.9164 23.3389 25.9613 23.3389 26.0063C23.295 26.0513 23.295 26.0513 23.2512 26.0513C22.8569 26.2311 22.4187 26.321 21.9805 26.4109C21.7614 26.4109 21.5862 26.4559 21.4109 26.5009L21.1042 26.5458L20.8851 26.5908L20.4469 26.6358H19.702C19.1324 26.6358 18.6066 26.5458 18.037 26.4109L17.4674 26.1861C16.591 25.9613 15.7147 25.7365 14.8384 25.5117C14.5755 25.4668 14.3126 25.4218 14.0497 25.3768L13.6991 25.3319H13.6115C13.5677 25.3319 13.48 25.3319 13.4362 25.2869C13.4362 25.2869 13.3924 25.2869 13.3924 25.242C13.3924 25.242 13.3924 25.197 13.3924 25.152C13.5239 24.9272 13.6553 24.7474 13.7868 24.5226L14.2687 23.8481C14.4878 23.5784 14.7069 23.2636 14.926 22.9939C15.1451 22.7241 15.1451 22.3644 14.8822 22.1396C14.7945 22.0497 14.6631 22.0047 14.5755 22.0047H14.5316C14.3564 22.0047 14.2249 22.0946 14.1373 22.2295C13.9182 22.4993 13.7429 22.7691 13.5677 23.0388L13.3924 23.2636C13.0419 23.7582 12.7351 24.2078 12.4284 24.7024C12.3408 24.7923 12.297 24.9272 12.2093 25.0621C12.1655 25.197 12.0341 25.242 11.9026 25.242C11.7274 25.242 11.5959 25.2419 11.4206 25.2869H11.2016H10.9825C10.8948 25.2869 10.7634 25.2869 10.6319 25.2869C10.5881 25.2869 10.5005 25.2869 10.4567 25.242C10.4567 25.197 10.4567 25.1071 10.5005 25.0621C10.6319 24.7474 10.8072 24.4776 11.0263 24.2078C11.2454 23.983 11.4206 23.7582 11.5521 23.4885C11.6397 23.3985 11.6835 23.2636 11.7712 23.1737L11.9026 22.9489C12.0779 22.7241 12.2093 22.4993 12.3846 22.2745C12.5161 22.0497 12.6037 21.8249 12.5599 21.5551C12.5599 21.5101 12.5599 21.4652 12.5599 21.4202C12.5599 21.1954 12.5599 21.0156 12.5599 20.7908C12.5161 20.521 12.5161 20.2512 12.5599 19.9815C12.6037 19.6667 12.6037 19.397 12.5599 19.0822C12.5599 18.9473 12.5161 18.8125 12.5161 18.6776C12.5161 18.5427 12.5161 18.4977 12.5161 18.3629V17.9582C12.5161 17.7334 12.5161 17.5535 12.5161 17.3287C12.5161 17.014 12.5161 16.6993 12.5161 16.3845V15.845C12.5161 15.7551 12.5161 15.6652 12.5161 15.6202C12.5161 15.5752 12.5161 15.3954 12.5161 15.3055C12.5161 15.1256 12.5161 14.9008 12.4722 14.721C12.5161 14.4962 12.297 14.2714 12.0341 14.2264L11.2892 14.0465L10.3252 13.7768C10.2376 13.7318 10.1061 13.6869 10.0623 13.6419C10.0623 13.6419 10.0623 13.6419 10.0623 13.5969C10.2376 13.5969 10.369 13.552 10.5443 13.552C10.7634 13.507 11.0263 13.507 11.2454 13.507C11.5083 13.507 11.7274 13.507 11.9903 13.507L12.3408 13.4621C12.3846 13.4621 12.4722 13.4621 12.5161 13.4621C12.6037 13.4621 12.6475 13.4621 12.7351 13.4621H13.0857C13.2171 13.4621 13.3924 13.4621 13.5239 13.4621C13.6553 13.4621 13.8306 13.4621 14.0058 13.507L14.4002 13.552C14.4878 13.552 14.5316 13.552 14.6193 13.552H14.7507H14.8384C15.1013 13.552 15.408 13.552 15.6709 13.552L16.1967 13.5969L16.6787 13.6419C16.7663 13.6419 16.8539 13.6419 16.9416 13.6419H17.073H18.5628C18.9572 13.6419 19.3515 13.6419 19.7459 13.5969C19.8773 13.5969 19.9649 13.5969 20.0964 13.552C20.2717 13.507 20.4469 13.507 20.6222 13.552C20.7536 13.5969 20.8851 13.5969 21.0166 13.5969H21.4985C21.7614 13.5969 22.0243 13.5969 22.3311 13.5969C22.6378 13.5969 22.7692 13.552 23.0321 13.5969H23.3389H23.3827C23.295 13.6419 23.2074 13.6869 23.1198 13.6869L23.0321 13.7318L21.7614 14.1814C21.5862 14.2264 21.4985 14.2714 21.3671 14.3163ZM23.5579 38.9102L23.0321 38.9552L21.7614 39.0451L21.2356 39.0901L20.7098 39.135L20.3155 39.18L19.9649 39.225C19.8773 39.225 19.7459 39.225 19.6144 39.225C19.3515 39.18 19.0886 39.225 18.8257 39.2699C18.7381 39.2699 18.6943 39.2699 18.6066 39.2699H16.372C16.2405 39.2699 16.1091 39.2699 15.9776 39.3149L15.7585 39.3598H15.7147C15.6709 39.3598 15.6271 39.3598 15.5833 39.3598H15.1889C14.9698 39.3598 14.7507 39.3598 14.5316 39.3598C14.3126 39.3598 14.1373 39.3149 13.962 39.3149L13.6553 39.2699C13.6115 39.2699 13.5677 39.2699 13.48 39.2699C13.2171 39.2699 12.9542 39.2699 12.6913 39.18C12.5599 39.135 12.4284 39.135 12.2532 39.0901L11.9903 39.0451L11.7274 39.0002L11.2892 38.9552L10.6319 38.8653L10.15 38.7753L9.31743 38.6854L8.44109 38.5955C8.39727 38.5955 8.30964 38.5955 8.26582 38.5955H8.13437L7.47712 38.5056L6.64459 38.4157C6.46933 38.4157 6.29406 38.3707 6.11879 38.3257C5.94352 38.2808 5.72444 38.2808 5.50535 38.2808C5.15482 38.2358 4.8481 38.1009 4.5852 37.9211C4.27848 37.6963 3.97176 37.4265 3.75268 37.1118C3.62123 36.887 3.48977 36.6172 3.48977 36.3474V36.2575C3.40214 35.5831 3.57741 34.9536 3.97176 34.4141L4.54138 33.6048L5.15482 32.7505C5.3739 32.3908 5.59299 32.0761 5.85589 31.7614L6.38169 30.9521C6.64459 30.5924 6.86368 30.1877 7.12658 29.828C7.34567 29.5582 7.52093 29.2435 7.74002 28.9737C7.87147 28.7939 8.04674 28.5691 8.17819 28.3893L8.66017 27.7148C8.92308 27.3551 9.18598 26.9954 9.44888 26.6358C9.58033 26.5009 9.79941 26.366 9.97468 26.366C10.2814 26.321 10.6319 26.321 10.9825 26.2761C11.0701 26.2761 11.1577 26.2761 11.2454 26.321C11.2892 26.5009 11.2016 26.6358 11.1139 26.7706C10.9387 26.9505 10.7634 27.1303 10.6319 27.3551L10.5443 27.49C10.4567 27.6249 10.3252 27.7598 10.2376 27.8947C10.15 28.0296 10.0623 28.1195 9.97468 28.2094C9.88705 28.2993 9.84323 28.4342 9.7556 28.5241L9.58033 28.7489L9.31743 29.1086C9.22979 29.2435 9.09834 29.4234 9.01071 29.5582L8.70399 30.0079C8.57254 30.1877 8.48491 30.3676 8.35346 30.5474L8.26582 30.6823C8.13437 30.8621 8.00292 31.042 7.82765 31.2218C7.65238 31.4017 7.52093 31.5815 7.4333 31.7614C7.34567 31.8962 7.30185 31.9862 7.21421 32.1211C7.03895 32.3459 6.9075 32.5707 6.73223 32.7955C6.46933 33.2001 6.20643 33.5149 5.94352 33.8296C5.85589 33.9195 5.76826 34.0094 5.72444 34.1443L5.59299 34.2792L4.89192 35.1784C4.54138 35.5381 4.54138 36.1226 4.89192 36.5273C4.93573 36.5722 4.93573 36.5722 4.97955 36.6172C5.02337 36.6622 5.06718 36.7071 5.15482 36.7071C5.33009 36.842 5.59299 36.842 5.76826 36.6172C5.89971 36.4823 5.89971 36.2575 5.85589 36.0777C5.76826 35.8079 5.85589 35.4932 6.07497 35.3133C6.25024 35.0435 6.42551 34.8187 6.60078 34.549L6.9075 34.0994C6.99513 34.0094 7.08276 33.8745 7.12658 33.7846C7.1704 33.6947 7.25803 33.6048 7.34567 33.5149C7.91529 32.7505 8.48491 31.9412 9.05453 31.1769C9.40506 30.6823 9.71178 30.2327 10.0623 29.7381L11.5083 27.6249C11.5521 27.5799 11.5521 27.535 11.5521 27.49C11.6397 27.2652 11.7712 27.0404 11.9903 26.9055C12.0779 26.8156 12.1655 26.6807 12.2532 26.5908L12.297 26.5009C12.3846 26.321 12.6037 26.2311 12.779 26.2761C13.48 26.4559 14.2249 26.5908 14.926 26.7706L15.5833 26.9505C15.9338 27.0404 16.2405 27.1303 16.591 27.1753C17.0292 27.2652 17.4674 27.3551 17.9055 27.4001C18.1684 27.4001 18.4314 27.4451 18.6943 27.4451H19.1762L19.5706 27.49C19.7897 27.535 19.9649 27.535 20.184 27.535C20.3593 27.535 20.4907 27.535 20.666 27.49C20.8413 27.49 21.0166 27.4451 21.1918 27.4451C21.6738 27.4451 22.112 27.4451 22.594 27.3551L23.0321 27.3102C23.2512 27.3102 23.4703 27.2652 23.6894 27.1753L23.777 27.1303C24.2152 26.9954 24.2152 26.9954 24.4781 27.4001C24.741 27.8048 25.1353 28.2993 25.4859 28.7939C25.7488 29.1536 26.0117 29.5582 26.2746 29.9179C26.7566 30.5924 27.2386 31.2218 27.7205 31.8513C27.8958 32.0761 28.0711 32.2559 28.2025 32.4807C28.334 32.7056 28.5092 32.8854 28.6845 33.0652C28.7283 33.1552 28.7722 33.2451 28.816 33.29C28.8598 33.38 28.9474 33.4699 28.9912 33.5598C29.0789 33.6497 29.1665 33.7846 29.2541 33.8745C29.3856 34.0094 29.4732 34.1443 29.5609 34.2792C29.7361 34.5939 29.9114 34.9087 30.0428 35.2684C30.1305 35.628 30.1305 36.0327 29.999 36.4374V36.5273C29.9552 36.797 29.8676 37.0668 29.6923 37.2916C29.3856 37.6963 28.9474 38.011 28.4654 38.1459C28.2902 38.1908 28.1149 38.2358 27.9396 38.2808C27.5891 38.3707 27.2386 38.4157 26.888 38.4606C26.5375 38.5056 26.1431 38.5505 25.7926 38.6405L25.223 38.7304C25.1792 38.7304 25.1353 38.7304 25.0477 38.7304V38.6854L24.5657 38.7753L23.9085 38.8653C23.8647 38.9102 23.6894 38.9102 23.5579 38.9102Z" fill="white"/>
<path d="M40.2084 10.1348C40.1646 10.1348 40.1207 10.1348 40.0331 10.1798C39.7264 10.1348 39.3758 10.0899 39.0691 10.1348C38.9377 10.1348 38.8062 10.1348 38.6748 10.1348C38.5871 10.1348 38.4557 10.0899 38.3681 10.0899H38.2804C37.7108 10.0449 37.1412 10.0449 36.6154 10.0449C36.0896 10.0449 35.6076 10.0449 35.0818 10.0449H34.4245L34.2054 10.0899H33.592C32.8909 10.0899 32.1899 10.0899 31.4888 10.0899C31.0944 10.0899 30.7001 10.3147 30.481 10.6294C30.3496 10.8992 30.2619 11.169 30.3057 11.4837C30.2619 12.0232 30.6125 12.5628 31.1383 12.6527C31.5326 12.7876 31.927 12.8775 32.3213 12.9674L32.8909 13.1473H32.9348C33.0662 13.1473 33.1977 13.2372 33.2415 13.3271C33.2853 13.417 33.2853 13.5519 33.2853 13.6418C33.2853 14.0465 33.2853 14.4511 33.2853 14.9008C33.2853 15.5752 33.2853 16.2496 33.3291 16.924C33.3291 17.1488 33.3729 17.3287 33.3729 17.5535C33.3729 17.7783 33.4167 17.9132 33.4167 18.093C33.4167 18.2729 33.4167 18.4078 33.4167 18.5426C33.4167 18.6775 33.4167 18.8124 33.4167 18.9473C33.4167 19.0822 33.4167 19.1721 33.4606 19.307C33.4606 19.3969 33.5044 19.4868 33.5044 19.5767C33.5044 19.7566 33.5044 19.9364 33.4606 20.1163V20.2062C33.4606 20.2961 33.4606 20.431 33.4167 20.5209C33.3729 20.6109 33.3729 20.8357 33.3729 21.0155V21.4202C33.3291 21.9597 33.3291 22.5442 33.3291 23.0837C33.3291 27.1752 33.3291 31.2667 33.3291 35.3582C33.3291 35.7179 33.3729 36.0776 33.4606 36.4373C33.7235 37.7412 34.5122 38.8652 35.6076 39.5846C35.8705 39.7645 36.1772 39.8993 36.4401 40.0342L36.6592 40.1241C37.1412 40.3489 37.667 40.4838 38.1928 40.4838H38.2366H38.8062H39.332C39.9893 40.4389 40.6465 40.1691 41.2162 39.8094C41.8296 39.4497 42.3554 39.0001 42.7936 38.4156C43.407 37.6063 43.7575 36.6171 43.8014 35.583C43.8452 34.9086 43.8014 34.1892 43.8014 33.5148C43.8014 33.29 43.8014 33.0652 43.8014 32.8404C43.8014 32.4357 43.7575 32.0311 43.7575 31.6264C43.7575 31.4016 43.7575 31.1768 43.7137 30.907C43.7137 30.5024 43.6699 30.0528 43.6699 29.6481V29.2435C43.6699 28.8838 43.6261 28.5241 43.6699 28.2094C43.6699 28.0295 43.7137 27.8946 43.7137 27.7148C43.7137 27.5799 43.7575 27.445 43.7575 27.3101C43.8014 26.9954 43.8014 26.6807 43.8014 26.3659C43.8014 25.3768 43.8014 24.3876 43.7575 23.3535V22.6341C43.7575 22.5892 43.7575 22.5442 43.7575 22.5442V22.3194C43.7575 22.1396 43.7137 21.9597 43.7137 21.7799C43.7137 21.645 43.7137 21.5101 43.7575 21.4202C43.7575 21.2853 43.8014 21.1954 43.8014 21.0605V20.7008C43.8452 20.0713 43.8452 19.4419 43.8452 18.8124C43.8452 17.5535 43.8452 16.2946 43.8452 15.0356V13.462C43.8014 13.3271 43.889 13.1922 44.0204 13.1922C44.0204 13.1922 44.0204 13.1922 44.0643 13.1922L44.7653 13.0573C45.0282 13.0124 45.2911 12.9225 45.554 12.8775L45.6855 12.8325C45.9922 12.7876 46.2989 12.6527 46.5618 12.4728C47.1314 12.0232 47.2191 11.169 46.7809 10.5845L46.7371 10.5395C46.4742 10.2248 46.0798 10.0449 45.6417 10.0449C45.0282 10.0449 44.371 10.0449 43.7575 10.0899H43.4946H43.1879L42.5307 10.1348C42.0925 10.1798 41.6543 10.1798 41.2162 10.2248C41.0409 10.2248 40.8656 10.2248 40.7342 10.2248L40.2084 10.1348ZM34.7313 32.7055C34.7313 32.5706 34.7313 32.4357 34.7313 32.3008C34.7313 32.166 34.7313 32.0311 34.7313 31.8512V28.7939C34.7313 26.8605 34.7313 24.9272 34.7313 22.9938C34.7313 22.5442 34.6874 22.1396 34.6874 21.6899C34.6874 21.4651 34.6436 21.2403 34.6436 21.0155C34.6436 20.7008 34.5998 20.3861 34.5998 20.0264C34.5998 19.8465 34.5998 19.6217 34.5998 19.4419C34.5998 19.262 34.5998 18.9023 34.5998 18.6326C34.556 18.4977 34.6436 18.3628 34.7751 18.3178C35.0818 18.183 35.3885 18.138 35.6952 18.183C35.9581 18.2729 36.0019 18.3178 36.0019 18.5426C36.0019 19.0372 35.9581 19.5318 35.9581 19.9814V20.476C35.9581 20.5659 35.9581 20.6109 35.9581 20.7008C35.9581 20.7907 35.9581 20.8806 35.9581 20.9706V21.1054C35.9581 21.6899 35.9143 22.2295 35.9143 22.814C35.9143 24.2977 35.9143 25.7814 35.8705 27.2652V28.569C35.8705 28.7939 35.8705 29.0636 35.8705 29.2884C35.8705 29.5132 35.8705 29.6931 35.8705 29.8729C35.8705 30.0528 35.8705 30.3675 35.8705 30.6373C35.8705 31.1768 35.8705 31.7163 35.8705 32.2559C35.8705 32.7954 35.8705 33.29 35.8705 33.7846V34.0993C35.8705 34.459 35.8705 34.8636 35.9143 35.2683C35.9581 35.8528 36.1772 36.3923 36.5716 36.842L36.6592 36.9768C36.7468 37.0668 36.7906 37.1117 36.8783 37.2016C36.9659 37.2916 37.0097 37.3365 37.1412 37.3815C37.3603 37.5164 37.667 37.4714 37.7984 37.2466C37.9299 37.0218 37.8861 36.752 37.7108 36.5722C37.667 36.5272 37.5794 36.4373 37.4917 36.3923C37.4479 36.3474 37.4041 36.3024 37.3603 36.2575C37.1412 36.0326 37.0097 35.7179 37.0097 35.3582C36.9659 34.7288 36.9659 34.0543 36.9659 33.3799C36.9659 33.1102 36.9659 32.8404 37.0097 32.5706C37.0536 32.3008 37.0536 32.121 37.0536 31.8962C37.0536 31.7613 37.0536 31.6264 37.0536 31.5365C37.0536 31.4016 37.0536 31.2667 37.0536 31.1318C37.1412 29.8729 37.1412 28.614 37.1412 27.4C37.1412 26.9055 37.1412 26.4109 37.1412 25.8714C37.1412 25.5566 37.1412 25.2419 37.1412 24.9272C37.1412 24.5225 37.1412 24.1179 37.1412 23.7132C37.1412 23.1287 37.1412 22.3194 37.0974 21.5101C37.0974 21.2403 37.0536 21.0155 37.0097 20.7457C36.9659 20.476 36.9659 20.2512 36.9659 19.9814C36.9659 19.5318 36.9659 19.0822 37.0097 18.6775C37.0097 18.6326 37.0536 18.5876 37.0536 18.5876C37.1412 18.5426 37.2288 18.5426 37.3165 18.5876C37.6232 18.6775 37.8861 18.8124 38.149 18.9923C38.5433 19.2171 38.9815 19.3969 39.4635 19.4868C39.8578 19.5767 40.296 19.6217 40.6904 19.6217C41.1723 19.6217 41.6543 19.5318 42.0925 19.3969L42.1801 19.3519H42.2678C42.3116 19.3519 42.3992 19.3519 42.443 19.3519C42.4869 19.3969 42.4869 19.4868 42.4869 19.5318C42.4869 20.0264 42.4869 20.476 42.5307 20.9706C42.5307 21.1054 42.5307 21.1954 42.5307 21.3302C42.5307 21.5101 42.5307 21.7349 42.5307 21.9147C42.5307 22.2744 42.5307 22.6341 42.4869 22.9938C42.443 23.3535 42.443 23.5783 42.443 23.8931C42.443 24.1179 42.443 24.3427 42.443 24.5675C42.443 24.7923 42.443 24.9272 42.443 25.107C42.443 25.1969 42.443 25.3318 42.443 25.4217C42.443 25.6016 42.443 25.7365 42.443 25.9163C42.443 26.276 42.4869 26.5907 42.5307 26.9504C42.5307 27.1752 42.5745 27.4 42.5745 27.6698C42.5745 27.9396 42.5745 28.0295 42.5745 28.2543C42.5745 28.3442 42.5745 28.4342 42.5745 28.569C42.5745 28.7039 42.5745 28.8388 42.5745 28.9287C42.5745 29.0636 42.5745 29.1985 42.6183 29.3334C42.6621 29.5582 42.6621 29.783 42.6183 29.9629V30.0977C42.6183 30.2326 42.5745 30.3225 42.5745 30.4574C42.5745 30.5473 42.5745 30.6373 42.5745 30.7722C42.5745 30.907 42.5745 30.952 42.5745 31.0419L42.4869 32.166C42.4869 32.6156 42.4869 33.0652 42.443 33.4698C42.443 34.0543 42.3992 34.6838 42.3992 35.2683C42.3992 36.1675 42.0487 37.0668 41.4791 37.7861C40.9971 38.4156 40.3836 38.8652 39.6388 39.09C39.2006 39.2699 38.7624 39.3148 38.3242 39.2699H38.2366C37.667 39.2699 37.0536 39.09 36.5716 38.7303C36.4839 38.6404 36.3525 38.5505 36.221 38.4606C36.0896 38.3706 36.0019 38.2807 35.8705 38.1908C35.3009 37.6063 34.9065 36.8869 34.7751 36.0776C34.7313 35.7179 34.6874 35.3133 34.6436 34.9536C34.6436 34.8636 34.6436 34.7737 34.6436 34.6388H34.6874V33.9644C34.7313 33.5148 34.7313 33.1102 34.7313 32.7055ZM42.3992 12.8325C42.3992 13.1023 42.3992 13.3721 42.3992 13.6418C42.3992 13.9116 42.3992 14.0914 42.3992 14.2713C42.3992 14.4511 42.3992 14.586 42.3992 14.7209C42.3992 14.8558 42.3992 15.0806 42.3992 15.2155C42.3992 16.0248 42.3992 16.8791 42.3992 17.7333C42.3992 17.8682 42.3116 18.0481 42.1801 18.093C41.742 18.3178 41.26 18.4527 40.778 18.4527C40.6904 18.4527 40.6465 18.4527 40.5589 18.4527C40.4713 18.4527 40.4275 18.4527 40.3398 18.4527C39.7264 18.4527 39.1568 18.3178 38.5871 18.093C38.1052 17.9132 37.667 17.7333 37.185 17.5985C36.9659 17.5085 36.9221 17.5085 36.9221 17.2837V16.5643C36.9221 16.2046 36.9221 15.8899 36.9221 15.5302C36.9221 15.0806 36.9659 14.631 36.9659 14.1814L37.0536 13.3271C37.0536 13.0573 36.9221 12.8325 36.703 12.6976C36.6154 12.6527 36.5277 12.6077 36.4401 12.6077C36.3525 12.6077 36.2648 12.6527 36.1772 12.6976C35.9581 12.8325 35.8705 13.0573 35.8705 13.2822C35.8705 13.417 35.8705 13.5069 35.8705 13.6418C35.8705 13.7318 35.8705 13.7767 35.8705 13.8667V14.2263C35.8705 14.631 35.9143 15.0356 35.8705 15.3953C35.8705 15.7101 35.9143 16.0698 35.9581 16.3845C35.9581 16.6093 35.9581 16.8341 35.8705 17.0139V17.1938C35.8267 17.2388 35.8267 17.2388 35.7829 17.2388H35.6076H35.4323H35.3009C35.1694 17.1938 35.038 17.1938 34.9065 17.2388C34.8627 17.2837 34.7751 17.2837 34.6874 17.2388C34.6436 17.1488 34.5998 17.0589 34.5998 17.0139C34.5998 16.7442 34.5998 16.5194 34.6436 16.2496C34.6436 16.1597 34.6436 16.0248 34.6874 15.8899V14.9907C34.6874 14.2263 34.6874 13.5069 34.7313 12.7876C34.7313 12.293 34.3807 11.9333 33.8987 11.8883L32.1022 11.4837H33.7235C34.5998 11.4837 35.4761 11.4837 36.3087 11.4837H36.3963C36.9659 11.4837 37.5355 11.4837 38.1052 11.3938C38.8062 11.3488 39.4635 11.3038 40.1646 11.3488H40.296C40.5151 11.3488 40.6904 11.3488 40.9094 11.3488H41.3038C41.5229 11.3488 41.7858 11.3488 42.0049 11.3938L42.3554 11.4387C42.5745 11.4387 42.7936 11.4837 43.0127 11.4837H43.8014H44.5901H44.7653H44.6777L44.0204 11.6635C43.6699 11.7535 43.3194 11.8434 42.925 11.9333C42.6621 12.0232 42.3554 12.3829 42.3992 12.8325Z" fill="white"/>
</g>
</svg>
