<svg width="50" height="50" viewBox="0 0 50 50" fill="none" xmlns="http://www.w3.org/2000/svg">
<mask id="mask0_276_1109" style="mask-type:luminance" maskUnits="userSpaceOnUse" x="5" y="1" width="40" height="48">
<path d="M45 1H5V49H45V1Z" fill="white"/>
</mask>
<g mask="url(#mask0_276_1109)">
<path d="M5.06154 15.1546C5.06154 15.4692 5.06154 15.7208 5.12308 16.0353C5.18462 16.3499 5.18462 16.6015 5.18462 16.9161C5.18462 17.2306 5.24616 17.5452 5.24616 17.7968C5.24616 17.9855 5.3077 18.2372 5.3077 18.4888C5.36924 19.1179 5.43078 19.8099 5.55385 20.439C5.67693 21.0681 5.80001 21.6343 5.86154 22.2634C5.92308 22.515 5.92308 22.7038 5.98462 22.9554C6.16924 23.3329 6.23077 23.8361 6.29231 24.2765C6.47693 25.0314 6.66154 25.7234 6.84616 26.4783L6.9077 26.73C6.96924 27.0445 7.09231 27.3591 7.15385 27.6736C7.21539 27.9882 7.33847 28.2398 7.40001 28.5543C7.46154 28.9947 7.64616 29.3722 7.95385 29.6867C7.95385 30.0013 7.95385 30.3158 8.13847 30.5674L8.20001 30.7562L8.38462 31.3853C8.5077 31.8256 8.69231 32.266 8.87693 32.7064C9.18462 33.3984 9.49231 34.0904 9.80001 34.7195L9.86154 34.8453C10.0462 35.2857 10.2923 35.6631 10.4769 36.0406V36.1035C10.5385 36.2293 10.6 36.2922 10.6615 36.418L10.7846 36.6697C10.9077 36.8584 10.9692 37.0471 11.0923 37.173C11.0923 37.2359 11.1539 37.2988 11.1539 37.2988C11.2154 37.4246 11.2154 37.4875 11.2769 37.6133C11.4 37.802 11.5231 37.9908 11.6462 38.1166L11.8923 38.4941C12.0154 38.7457 12.2 38.9973 12.3846 39.249C12.6923 39.7522 13 40.2555 13.3692 40.6959C13.8615 41.3879 14.4769 42.1428 15.2154 42.9606C15.6462 43.4639 16.1385 43.9043 16.6308 44.3446C17.2462 44.9108 17.9231 45.4141 18.6615 46.0432C19.5231 46.6723 20.5077 47.1756 21.4923 47.6159C21.8615 47.8047 22.2308 47.9305 22.6 48.0563L23.0308 48.245C23.0923 48.245 23.1539 48.245 23.2154 48.245C23.4615 48.245 23.6462 48.3709 23.8308 48.4967C24.1385 48.8112 24.5077 49 24.8769 49C25.1231 49 25.3692 48.937 25.6154 48.8112C25.8615 48.6854 26.1077 48.6225 26.3539 48.5596L26.7846 48.4338L26.9077 48.3709C27.0923 48.3079 27.2769 48.245 27.4615 48.1192C28.0154 47.7418 28.6308 47.4272 29.3077 47.1756C29.4308 47.1127 29.5539 47.0498 29.6769 46.9868L29.7385 46.9239L29.9846 46.7352C30.1077 46.6723 30.1692 46.5465 30.2923 46.4836C31.0308 46.1061 31.7077 45.6028 32.3231 45.0366L32.8154 44.5963C33.0615 44.4076 33.2462 44.2188 33.4308 43.9672L33.7385 43.6526L34.2308 43.2123C34.4769 42.9606 34.7231 42.709 34.9692 42.4574C35.2769 42.1428 35.5231 41.8283 35.7692 41.5137C35.8308 41.3879 35.8923 41.325 35.9539 41.1992C36.1385 40.8846 36.3231 40.633 36.5692 40.4443C36.6923 40.3813 36.7539 40.2555 36.8154 40.1297L37.1231 39.6264C37.2462 39.3748 37.4308 39.1231 37.6154 38.8715C37.6769 38.7457 37.7385 38.6828 37.8615 38.557C37.9846 38.4311 38.1077 38.2424 38.2308 38.0537C38.6 37.4246 38.9077 36.8584 39.2769 36.2293L39.7077 35.4115C39.9539 34.9711 40.1385 34.5937 40.3231 34.1533C40.6308 33.5242 40.8769 32.8951 41.1846 32.1402L41.3692 31.6998C41.6769 30.9449 41.9846 30.19 42.2923 29.3722C42.6615 28.3656 42.9692 27.2962 43.3385 25.9121C43.5231 25.1572 43.7077 24.3394 43.8308 23.5845L43.8923 23.3958C44.0154 22.6408 44.1385 21.9488 44.2615 21.1939C44.3846 20.439 44.5077 19.747 44.6308 18.9921C44.6923 18.363 44.7538 17.7339 44.8154 17.1048C44.8769 16.4757 44.8769 15.8466 44.9385 15.2175L45.0615 14.4626V14.211C45.0615 14.1481 45.0615 14.0851 45.0615 14.0222C45.1231 13.456 44.7539 12.8899 44.2615 12.7011C43.7692 12.4495 43.2769 12.1979 42.7846 12.0091L41.7385 11.5059C41.1231 11.1913 40.5692 10.9397 39.9538 10.6251L38.7846 10.0589L36.8154 9.05238C36.1385 8.73783 35.4615 8.36038 34.7846 7.98292C34.5385 7.8571 34.3539 7.66837 34.1077 7.54255L33.1231 6.85055C32.5692 6.47309 32.0154 6.09563 31.4 5.71817C30.6 5.15199 29.7385 4.52289 28.8154 3.83089C28.6308 3.70507 28.5077 3.57925 28.3231 3.45343C27.8308 3.13888 27.4615 2.82433 27.0923 2.38397C26.9692 2.25815 26.8462 2.13233 26.7231 2.00651L26.3539 1.69196C26.1692 1.56614 25.9846 1.37741 25.8615 1.25159C25.4923 0.811228 24.7539 0.748318 24.3231 1.12577L24.2615 1.18868L23.8308 1.62905C23.2154 2.13233 22.6 2.69851 21.9846 3.20179C21.4923 3.64216 21 4.01962 20.4462 4.33416C20.2 4.52289 20.0154 4.64871 19.7692 4.90035C19.5231 5.15199 19.2154 5.34072 18.9077 5.52944C18.6615 5.65526 18.4154 5.84399 18.2308 6.03272C18.1077 6.15854 17.9846 6.22145 17.8615 6.34727C17.6154 6.536 17.3077 6.66182 17.0615 6.85055L16.5692 7.16509L16.0769 7.47964C15.8923 7.60546 15.7077 7.73128 15.5231 7.8571C14.9692 8.17165 14.4769 8.48619 13.9231 8.80074L11.5846 10.1218L10.4769 10.7509C10.1077 10.9397 9.73847 11.1913 9.3077 11.38C8.87693 11.5688 8.69231 11.6946 8.32308 11.8833L7.95385 12.072L7.46154 12.2608L6.04616 12.827C5.36924 13.0786 4.93847 13.7706 5.06154 14.5255C5.06154 14.7772 5.06154 14.9659 5.06154 15.1546ZM43.0308 15.0917V15.2804L42.7846 17.9226C42.7231 18.3001 42.7231 18.6775 42.6615 19.055C42.5385 19.8099 42.4769 20.5648 42.3539 21.3197C42.2308 22.0747 42.1077 22.8296 41.9231 23.5845C41.8 24.2136 41.6154 24.9685 41.4308 25.7234C41.1846 26.8558 40.8769 27.9882 40.5692 29.1205C40.5077 29.3722 40.4462 29.5609 40.3231 29.8125L40.2 30.19V30.2529C40.1385 30.3787 40.1385 30.5045 40.0769 30.6933C40.0154 30.9449 39.9538 31.1965 39.8308 31.3853C39.7692 31.5111 39.7692 31.574 39.7077 31.6998C39.6462 31.8256 39.5846 32.0773 39.5231 32.266C39.4615 32.5176 39.3385 32.7693 39.2769 33.0209C38.5385 34.4678 37.8 35.9777 36.9385 37.3617C36.8154 37.4875 36.7539 37.6762 36.6308 37.802C36.5077 37.9279 36.3846 38.1166 36.3231 38.3053C36.2615 38.4311 36.2 38.557 36.1385 38.6828C36.0769 38.8086 36.0769 38.8715 36.0154 38.9973C35.8923 39.1231 35.7692 39.249 35.6462 39.3748C35.5231 39.5006 35.4 39.6264 35.2769 39.7522C35.0308 40.0668 34.8462 40.3184 34.6 40.633L34.2308 41.1363C34.1692 41.1992 34.1077 41.2621 34.0462 41.325L33.9231 41.5137C33.8 41.6395 33.6769 41.7654 33.5539 41.9541L33.3077 42.2057C33 42.5203 32.6308 42.8977 32.2615 43.2123C31.8923 43.5268 31.7077 43.6526 31.4615 43.9043L30.9077 44.3446C30.7231 44.4705 30.5385 44.6592 30.3539 44.8479L30.0462 45.0366C29.9846 45.0996 29.9846 45.0996 29.9231 45.1625L29.4308 45.4141C29.1231 45.5399 28.8154 45.7287 28.5077 45.9174C27.7077 46.3577 26.8462 46.7981 25.9846 47.0498L25.7385 47.1756C25.2462 47.3643 24.6923 47.3643 24.1385 47.1756C23.4 46.9239 22.7231 46.6094 22.1077 46.169C21.3692 45.6657 20.6308 45.0996 19.9539 44.5963C19.4615 44.2188 19.0308 43.9043 18.5385 43.5268C17.7385 42.9606 17 42.3315 16.3231 41.5766C16.2 41.4508 16.0154 41.2621 15.8308 41.1363C15.6462 41.0104 15.4615 40.7588 15.2769 40.5701C15.0923 40.3813 14.9692 40.2555 14.8462 40.0668L14.5385 39.6893L14.2923 39.3748C14.1692 39.249 14.0462 39.1231 13.9846 38.9973C13.6769 38.6199 13.4308 38.2424 13.1846 37.9279L13 37.7391C13 37.6762 12.9385 37.6133 12.9385 37.6133C12.8769 37.4875 12.8154 37.2988 12.7538 37.173C12.6308 36.7955 12.4462 36.4809 12.2 36.1035C11.8923 35.6631 11.6462 35.1598 11.4615 34.5937V34.5308C11.3385 34.2791 11.2154 34.0275 11.0923 33.7758C11.0308 33.65 10.9692 33.5242 10.9077 33.3984C10.8462 33.2726 10.7846 33.2097 10.7846 33.0838L10.6615 32.8951C10.5385 32.5176 10.3538 32.1402 10.1692 31.7627L10.1077 31.574C9.98462 31.3224 9.86154 31.0078 9.80001 30.7562C9.73847 30.6304 9.67693 30.4416 9.67693 30.3158C9.67693 30.19 9.49231 29.9384 9.43077 29.7496C9.36924 29.5609 9.24616 29.3093 9.18462 29.1205C9.12308 28.9318 8.93847 28.5543 8.87693 28.2398C8.81539 28.0511 8.81539 27.8623 8.75385 27.7365C8.75385 27.5478 8.69231 27.422 8.63077 27.2332C8.56924 27.0445 8.5077 26.7929 8.44616 26.6041C8.38462 26.4154 8.32308 26.1638 8.26154 25.9751V25.9121C8.07693 25.283 7.89231 24.591 7.76924 23.9619C7.7077 23.6474 7.64616 23.3328 7.64616 23.0183C7.64616 22.7038 7.58462 22.515 7.52308 22.2634C7.46154 22.0117 7.46154 21.823 7.40001 21.6343C7.33847 21.4456 7.33847 21.2568 7.27693 21.131C7.21539 20.8165 7.15385 20.5019 7.15385 20.1874L7.03077 19.4325C6.96924 18.9292 6.9077 18.4259 6.84616 17.9855C6.84616 17.8597 6.84616 17.7339 6.84616 17.6081C6.84616 17.4823 6.84616 17.4194 6.84616 17.2935L6.72308 14.5884C6.72308 14.3997 6.78462 14.2739 6.9077 14.1481L8.26154 13.456L9.06154 13.0786C9.18462 13.0157 9.36924 12.9528 9.49231 12.827C9.86154 12.6382 10.2308 12.4495 10.5385 12.3237C10.7846 12.1979 11.0308 12.1349 11.2154 12.0091C11.7692 11.6946 12.3231 11.4429 12.8154 11.1284L13.6154 10.688L13.9231 10.4993C14.1077 10.3735 14.3539 10.2477 14.5385 10.1218L15.7077 9.36693L16.7539 8.67492L17.4308 8.29747C17.8 8.10874 18.1692 7.8571 18.4769 7.66837C18.7846 7.47964 19.1539 7.16509 19.5231 6.91346C19.9539 6.59891 20.3846 6.22145 20.8769 5.9069C21.6154 5.40363 22.2923 4.90035 22.9692 4.39707L23.7077 3.83089C23.8308 3.70507 23.9539 3.64216 24.1385 3.51634C24.3846 3.2647 24.6308 3.07597 24.9385 2.95015C25 2.95015 25.0615 2.88724 25.1231 2.88724C25.1846 2.88724 25.1846 2.88724 25.2462 2.88724C25.6769 3.07597 25.9846 3.39052 26.2923 3.76798L26.4769 3.95671C26.6 4.08252 26.7231 4.20834 26.9077 4.33416L26.9692 4.39707L28.3231 5.40363L29.3692 6.22145L29.9231 6.66182C30.4769 7.03927 31.0308 7.47964 31.5846 7.8571C32.1385 8.23456 32.7539 8.61201 33.3077 8.98947C33.5539 9.11529 33.8 9.30402 34.1077 9.42984C34.5385 9.68148 34.9692 9.93311 35.4 10.2477C36.8769 11.2542 38.4154 12.1349 40.0154 12.9528L40.2 13.0786C41.0615 13.519 41.8615 13.8964 42.6 14.2739C42.9077 14.3368 43.0923 14.6513 43.0308 14.9659C43.0308 14.9659 43.0308 15.0288 43.0308 15.0917Z" fill="white"/>
<path d="M37.6769 21.131C37.5539 20.5019 37.3692 19.8728 37.1231 19.3066C37 19.055 36.8769 18.8663 36.6923 18.6775C36.6308 18.5517 36.5077 18.4888 36.4462 18.363C36.1385 17.9226 35.8308 17.5452 35.4 17.1677C34.8462 16.6644 34.2923 16.287 33.6154 16.0353C33.1846 15.8466 32.6923 15.7208 32.2 15.6579C31.9539 15.6579 31.7077 15.6579 31.4 15.6579C31.2154 15.6579 31.0923 15.6579 30.9077 15.6579C30.1692 15.6579 29.4308 15.7837 28.7539 16.0982C28.0154 16.4757 27.3385 16.979 26.7846 17.5452C26.6 17.7339 26.3539 17.9855 26.1692 18.1743C25.9846 18.363 25.8 18.5517 25.6154 18.7404C25.4923 18.8663 25.3692 18.9921 25.2462 19.1179C25.1846 19.1808 25.1231 19.2437 25.0615 19.2437C25 19.2437 25 19.2437 25 19.1808L24.6308 18.7404C24.4462 18.4888 24.2 18.2372 23.9539 17.9855C23.0923 16.979 21.9846 16.2241 20.6923 15.9095L20.3231 15.7837C19.9539 15.6579 19.5231 15.595 19.0923 15.595C18.6 15.595 18.1077 15.6579 17.6769 15.7837L17.2462 15.8466C16.9385 15.9095 16.5692 15.9724 16.2615 16.0982C15.5846 16.4128 15.0308 16.8532 14.4769 17.3564C13.8616 17.9855 13.3077 18.6775 12.8769 19.4954C12.4462 20.439 12.2 21.4456 12.2 22.4521C12.2 23.1441 12.2616 23.7732 12.4462 24.4652C12.5077 24.7798 12.6308 25.0943 12.8769 25.2201C13.1846 25.4089 13.4923 25.4089 13.8616 25.346C14.1692 25.283 14.4769 25.0314 14.4154 24.6539C14.4154 24.591 14.4154 24.5281 14.3539 24.4652L14.2923 24.1507C14.1077 23.6474 14.0462 23.0812 14.1077 22.5779V22.515C14.0462 22.0117 14.1077 21.5085 14.2923 21.0052L14.3539 20.7536C14.3539 20.6277 14.4154 20.5648 14.4154 20.5019C14.4769 20.1245 14.6 19.8099 14.7846 19.5583L15.3385 18.9292L15.5231 18.7404L15.6462 18.5517C15.7077 18.4259 15.8308 18.3001 15.9539 18.2372C16.5077 17.8597 17.0616 17.6081 17.6769 17.4823H17.8C18.0462 17.4193 18.2923 17.3564 18.5385 17.3564C18.9077 17.3564 19.2769 17.4193 19.6462 17.4823L19.9539 17.5452C20.1385 17.5452 20.3231 17.6081 20.4462 17.671C21.0616 17.9226 21.6769 18.3001 22.2308 18.6775C22.6615 19.055 23.0923 19.4325 23.4615 19.8728C23.6462 20.1245 23.8308 20.3761 24.0154 20.6906L24.2615 21.0681C24.4462 21.3827 24.8154 21.6343 25.2462 21.5714C25.6154 21.5085 25.8615 21.2568 25.9846 20.9423C26.0462 20.8165 26.1077 20.6906 26.1692 20.5648C26.6616 19.9986 27.0923 19.5583 27.5231 19.055C28.0154 18.5517 28.5077 18.1743 29.1231 17.8597C29.5539 17.6081 29.9846 17.4823 30.4154 17.3564C30.5385 17.3564 30.6616 17.2935 30.7846 17.2935C30.9077 17.2306 31.0308 17.2306 31.1539 17.2306C31.7692 17.2306 32.4462 17.2935 33.0615 17.4823C33.3077 17.5452 33.5539 17.671 33.8 17.7968C33.9846 17.9855 34.2308 18.1743 34.4154 18.3001L34.7231 18.4888L34.9077 18.6146C35.0308 18.6775 35.0923 18.8034 35.1539 18.8663C35.5231 19.4954 35.8308 20.1245 36.1385 20.7536C36.3846 21.5085 36.5077 22.3263 36.3846 23.1441C36.3231 23.7103 36.2615 24.2765 36.0154 24.8427C35.7692 25.5976 35.5231 26.1638 35.2769 26.6671C35.1539 26.9187 34.9692 27.1703 34.7846 27.422L34.6615 27.6107C34.5385 27.7994 34.4154 27.9252 34.2923 28.114L33.9231 28.5543C33.8 28.6802 33.6769 28.8689 33.6154 29.0576C33.4308 29.3722 33.1846 29.6238 32.9385 29.8754C32.7539 30.0642 32.5692 30.2529 32.3846 30.3787C32.0154 30.6304 31.7077 30.9449 31.4615 31.2595L30.8462 31.6998C30.4769 32.0144 30.0462 32.3289 29.6769 32.6435C29.4923 32.7693 29.2462 32.958 29.0615 33.0838L28.8769 33.2097L28.6308 33.3355L28.3231 33.5242L27.7692 33.9017C27.5231 34.0904 27.2154 34.2791 26.9692 34.4049C26.7231 34.5307 26.5385 34.6566 26.2923 34.7824C26.0462 34.9082 25.7385 35.0969 25.4923 35.2228C25.3692 35.2857 25.2462 35.3486 25.0615 35.2857L24.6923 35.1598C24.3231 35.0969 23.9539 34.9082 23.6462 34.6566C23.4615 34.5308 23.2769 34.4049 23.0308 34.2791C22.9077 34.2162 22.7846 34.1533 22.6616 34.0904C22.4769 33.9646 22.2923 33.8387 22.1077 33.65C21.9231 33.4613 21.6769 33.3355 21.4923 33.2097C20.4462 32.5176 19.4616 31.6998 18.6 30.8191L18.3539 30.5674C18.2308 30.4416 18.1077 30.3158 17.9231 30.1271L17.8 30.0013C17.6154 29.8125 17.4308 29.6867 17.1846 29.5609C16.8769 29.498 16.5692 29.498 16.2 29.5609H16.1385C15.8923 29.5609 15.7077 29.6867 15.5846 29.8754C15.5231 30.0642 15.5231 30.3158 15.7077 30.5045C15.7692 30.6304 15.8308 30.6933 15.8923 30.7562L16.3231 31.1965C16.6923 31.574 17.0616 31.9515 17.4308 32.266C17.9846 32.7693 18.6 33.2096 19.4 33.7758C19.6462 33.9646 19.9539 34.1533 20.2 34.2791C20.4462 34.4049 20.5692 34.4678 20.7539 34.5937C20.9385 34.7195 21.0616 34.7824 21.2462 34.9082C21.4308 35.034 21.6154 35.1598 21.8 35.2857C21.9231 35.3486 22.0462 35.4115 22.1692 35.4744C22.2308 35.4744 22.3539 35.5373 22.4154 35.6002L23.6462 36.2922L24.2615 36.6697C24.4462 36.7955 24.6308 36.8584 24.8769 36.8584C25.1231 36.8584 25.3077 36.7955 25.4923 36.6697L26.2308 36.2922C26.6615 36.0406 27.0923 35.8519 27.5231 35.6002C27.9539 35.3486 28.2615 35.1598 28.5692 34.9082L28.8769 34.7195L29.4308 34.2791C29.7385 34.0904 30.0462 33.8387 30.3539 33.65C31.0923 33.1467 31.7692 32.5806 32.4462 31.9515C32.5692 31.8256 32.6923 31.6998 32.8154 31.574L33.1231 31.2595L33.3692 31.0707C33.4923 30.9449 33.6154 30.882 33.7385 30.7562C33.8 30.6933 33.8615 30.6304 33.9231 30.5674C33.9231 30.5045 33.9846 30.5045 33.9846 30.4416C34.4769 30.0013 34.8462 29.498 35.2154 28.9318C35.3385 28.6802 35.5231 28.4285 35.7077 28.1769C36.0154 27.7365 36.2615 27.2962 36.5077 26.7929C36.7539 26.2267 37 25.5976 37.1846 24.9685C37.2462 24.7798 37.3077 24.5281 37.4308 24.3394C37.4923 24.2136 37.5539 24.0249 37.5539 23.8361V23.7732C37.5539 23.7103 37.5539 23.5845 37.5539 23.5216C37.5539 23.3958 37.5539 23.2699 37.5539 23.1441C37.5539 23.0183 37.6154 22.8925 37.6154 22.7667C37.6769 22.5779 37.6769 22.3263 37.6769 22.1376C37.6769 21.823 37.6769 21.5085 37.5539 21.2568L37.6769 21.131Z" fill="white"/>
<path d="M17.7385 27.6108C17.8615 27.4221 17.9231 27.1704 17.9846 26.9817L18.4154 25.8493C18.7846 24.8428 19.1538 23.8362 19.5846 22.8297C19.6461 22.7668 19.7077 22.7039 19.7692 22.7039C19.8923 22.9555 19.9538 23.2071 20.0769 23.4588L20.2 23.7733C20.2615 23.8991 20.3231 24.0879 20.3846 24.2137C20.4461 24.3395 20.4461 24.3395 20.5077 24.4653C20.5692 24.5911 20.5692 24.5911 20.6308 24.717C20.6308 24.7799 20.6923 24.8428 20.6923 24.9057C20.6923 24.9686 20.6923 25.0315 20.7538 25.0944C20.8154 25.1573 20.8769 25.409 20.8769 25.5348C20.9385 25.7864 21.0615 26.101 21.1231 26.3526C21.1231 26.4155 21.1231 26.4784 21.1846 26.5413C21.2461 26.8559 21.3692 27.2333 21.6154 27.485V27.5479L21.7385 28.177C21.8 28.4915 21.8615 28.869 21.9846 29.1835C22.1692 29.7497 22.3538 30.3159 22.6615 30.8192L22.7846 31.1337C22.9077 31.3854 23.1538 31.5741 23.4 31.637C23.5231 31.6999 23.6461 31.6999 23.7692 31.6999C23.8923 31.6999 24.0769 31.637 24.2 31.5741C24.4461 31.4483 24.6308 31.1966 24.6923 30.8821L24.9385 30.1901C25.2461 29.3723 25.5538 28.6173 25.8615 27.7995C26.0461 27.3592 26.1692 26.8559 26.3538 26.4155C26.4769 26.101 26.5385 25.8493 26.6615 25.5348C26.6615 25.4719 26.6615 25.4719 26.7231 25.409C26.7846 25.409 26.7846 25.4719 26.8461 25.4719C26.9077 25.5348 26.9077 25.5348 26.9692 25.5977C27.1538 26.101 27.4 26.6042 27.5846 27.0446C27.7692 27.6108 28.2615 27.9883 28.8769 27.9883L29.1846 27.9253C29.3077 27.9253 29.4923 27.8624 29.6154 27.8624C29.7385 27.8624 29.8615 27.8624 29.9846 27.9253C30.1077 27.9253 30.2308 27.9883 30.3538 27.9883C30.6 27.9883 30.8461 27.9883 31.0923 27.9883C31.3385 27.9883 31.4615 27.9883 31.7077 27.9253C31.8923 27.9253 32.0154 27.8624 32.1385 27.6737C32.2 27.5479 32.2 27.4221 32.1385 27.2962C32.0769 27.0446 31.8923 26.9188 31.7077 26.793C31.1538 26.6042 30.6 26.6042 30.0461 26.7301C29.4923 26.8559 28.8769 26.6042 28.6308 26.101C28.4461 25.6606 28.3231 25.2202 28.1385 24.8428L27.8923 24.2137C27.7077 23.5846 27.0923 23.27 26.4769 23.4588C26.1077 23.5846 25.8 23.8991 25.6154 24.3395C25.3077 25.0315 25 25.7864 24.7538 26.6042C24.5692 27.1075 24.3846 27.6737 24.2615 28.2399C24.1385 28.6803 24.0154 29.1206 23.8308 29.4981C23.8308 29.561 23.7692 29.561 23.7692 29.6239L23.4615 29.7497L23.4 29.6868L23.2154 29.1835C23.0308 28.8061 22.9077 28.3657 22.7231 27.9883C22.5385 27.485 22.4154 26.9817 22.2923 26.4784C22.2308 26.2268 22.1692 25.9751 22.1077 25.7864C22.0461 25.5977 21.9846 25.3461 21.9231 25.0944C21.8615 24.8428 21.8 24.5911 21.7385 24.3395C21.6154 23.962 21.4923 23.6475 21.4308 23.27L21.2461 22.7668L21.1231 22.2635C21 21.9489 20.9385 21.6973 20.8154 21.3828C20.6923 21.0053 20.3231 20.7537 19.9538 20.7537C19.5231 20.6278 19.0308 20.8795 18.8461 21.2569C18.7231 21.5715 18.5385 21.9489 18.4154 22.2635L18.2308 22.8297L18.1077 23.2071C17.9231 23.7104 17.6769 24.2137 17.4923 24.717C17.3077 25.2202 16.9385 25.7864 16.6923 26.3526C16.5692 26.5413 16.5692 26.5413 16.4461 26.6042C16.2 26.6042 15.9538 26.6672 15.6461 26.6672H13L12.6923 26.7301H12.0769C12.0154 26.7301 11.8923 26.7301 11.8308 26.793H11.7692C11.4 26.8559 11.1538 27.1704 11.1538 27.5479C11.1538 27.9253 11.4 28.2399 11.7692 28.3028H11.9538C12.3231 28.3657 12.6923 28.3657 13.0615 28.3657C13.8615 28.3657 14.7231 28.3657 15.5231 28.3657C15.8923 28.3657 16.2615 28.3657 16.6308 28.3028C17 28.3028 17.4923 28.0512 17.7385 27.6108Z" fill="white"/>
</g>
</svg>
