<svg width="50" height="50" viewBox="0 0 50 50" fill="none" xmlns="http://www.w3.org/2000/svg">
<path d="M6.04546 30.6497C6.22728 30.6497 6.40909 30.6497 6.59091 30.7015C6.72728 30.7532 6.86364 30.8568 6.86364 31.0638C6.90909 31.2709 6.81819 31.5297 6.63637 31.5815C6.31819 31.5815 6.04546 31.5815 5.77273 31.5815C5.63637 31.5815 5.45455 31.4779 5.31819 31.4779C5.22728 31.4262 5.18182 31.5297 5.13637 31.6332V31.685C5.13637 31.9438 5.09091 32.2026 5.09091 32.4615C5.09091 32.7203 5.18182 32.9791 5.36364 33.2379C5.63637 33.4968 6.04546 33.6521 6.36364 33.6003C6.63637 33.6003 6.90909 33.5485 7.18182 33.4968C7.59091 33.4968 7.95455 33.445 8.36364 33.445C8.5 33.445 8.72728 33.4968 8.86364 33.4968C9.31819 33.4968 9.86364 33.445 10.3182 33.445C10.5 33.445 10.6818 33.4968 10.8636 33.4968C11 33.5485 11.0909 33.445 11.0909 33.3415C11.0909 33.2897 11.0909 33.2379 11.0909 33.1862C11.0909 33.0309 11.0909 32.8238 11.0909 32.6168C11.0909 32.4097 11.0909 32.1509 11.0909 31.9956C11.1364 31.8403 11.0455 31.7368 10.9545 31.7368H10.9091C10.8182 31.7368 10.7727 31.685 10.7273 31.685C10.3636 31.685 10 31.685 9.68182 31.685C9.5 31.6332 9.31819 31.4779 9.36364 31.2191V31.1674C9.31819 30.9603 9.5 30.7532 9.68182 30.7015C9.72728 30.7015 9.77273 30.7015 9.77273 30.7015C10.2273 30.7015 10.6364 30.7015 11.0909 30.7532C11.3182 30.805 11.5455 30.5979 11.6818 30.3391C12 29.6662 12.5 29.2003 13.0909 28.8379C13.5909 28.5274 14.1818 28.3721 14.7728 28.4756C15.1364 28.4756 15.5 28.5791 15.7728 28.7344C16 28.8897 16.2273 29.045 16.5 29.2003C16.6364 29.3556 16.7728 29.3556 16.9091 29.3038C17.0909 29.2003 17.2728 28.9932 17.2728 28.7344C17.2728 28.2168 17.2728 27.7509 17.2728 27.2332C17.2728 27.1815 17.2728 27.1297 17.2728 27.0779C17.2728 26.9226 17.2728 26.7674 17.2728 26.5603C17.2273 26.1979 17.2273 25.7838 17.2728 25.4215C17.3637 24.8521 17 24.2826 16.5455 24.2309C16.5 24.2309 16.4546 24.2309 16.4091 24.2309H14.5909C14.5 24.2309 14.4091 24.2826 14.3182 24.2826C14 24.2826 13.7273 24.2309 13.4091 24.2309C13.0909 24.2309 12.8182 24.2826 12.5 24.2309C12.1818 24.1791 11.8182 24.1791 11.5 24.1791C11.3182 24.1791 11.0909 24.1791 10.9545 24.1791C10.5 24.1791 10 24.1274 9.59091 24.1274C8.90909 24.1274 8.27273 24.1791 7.63637 24.1791C7.40909 24.1791 7.18182 24.1274 6.95455 24.1274C6.86364 24.1274 6.81819 24.1791 6.68182 24.1791C6.45455 24.1791 6.22728 24.1274 5.95455 24.1274C5.81819 24.1274 5.72728 24.1791 5.63637 24.2826C5.22728 24.4897 5.09091 24.9038 5.04546 25.3697C5.04546 26.5085 5 27.5956 5 28.7344C5 29.045 5 29.3556 5.04546 29.6662C5.09091 30.1321 5.5 30.6497 6.04546 30.6497ZM7.40909 30.7015C7.40909 30.3391 7.59091 30.0803 7.90909 30.0285C7.95455 30.0285 7.95455 30.0285 8 30.0285C8.13637 30.0285 8.22728 30.0285 8.36364 30.0285C8.59091 30.0803 8.77273 30.2874 8.77273 30.5462C8.77273 30.9085 8.81819 31.3226 8.81819 31.685C8.81819 32.3062 8.59091 32.4097 8.13637 32.4615C8 32.4615 7.81819 32.4615 7.68182 32.3579C7.54546 32.2544 7.45455 32.0474 7.45455 31.8403C7.45455 31.6332 7.45455 31.4262 7.45455 31.2191C7.40909 31.0638 7.40909 30.8568 7.40909 30.7015Z" fill="#B15126"/>
<path d="M14.5 18.951C14.5455 19.3133 14.5909 19.6757 14.6364 20.0381C14.7273 20.5039 14.8182 20.9698 14.9546 21.5392C15.0455 21.8498 15.0909 22.1604 15.2273 22.471C15.2727 22.6263 15.3637 22.6781 15.5 22.7298C15.6364 22.8333 15.8182 22.8333 15.9546 22.7298C16.1818 22.5745 16.2727 22.2639 16.1364 22.0569C16.1364 22.0569 16.1364 22.0569 16.1364 22.0051C16 21.4875 15.9091 21.0216 15.8637 20.5039C15.8182 20.3486 15.8182 20.1416 15.7727 19.9863C15.6818 19.5204 15.6364 19.0545 15.6364 18.4851C15.5909 17.9157 15.5455 17.5016 15.5455 16.9839L15.5 16.4663C15.5 16.4145 15.5 16.311 15.5 16.2592L15.5455 14.2922C15.5455 14.2404 15.5455 14.1886 15.5455 14.1369C15.5455 14.0851 15.5455 13.9816 15.5455 13.8781C15.5455 13.7228 15.5909 13.5675 15.6364 13.4122C15.6818 13.2569 15.6818 13.1533 15.7273 12.9981C15.8637 12.3769 16.0455 11.7557 16.2727 11.1863C16.4091 10.9275 16.5 10.6686 16.6818 10.4616L16.7273 10.4098C16.8637 10.151 17.0455 9.89216 17.2273 9.58158C17.3182 9.42628 17.4091 9.37452 17.5 9.27099C17.5909 9.16746 17.6364 9.11569 17.7273 9.01216C17.9091 8.8051 18.1818 8.54628 18.4546 8.44275L18.6818 8.28746C18.9546 8.13216 19.2273 7.97687 19.5 7.87334C19.6818 7.82158 19.9091 7.71805 20.0455 7.66628C20.1364 7.51099 20.2727 7.51099 20.4091 7.51099C20.5 7.51099 20.5455 7.51099 20.6364 7.45922L20.8637 7.40746C21.2727 7.30393 21.6818 7.25216 22.0909 7.30393C22.2273 7.35569 22.4546 7.35569 22.5909 7.35569C22.7273 7.35569 22.9546 7.40746 23.0909 7.45922C23.6364 7.56275 24.0909 7.61452 24.5 7.76981C25.1364 7.9251 25.7273 8.28746 26.2273 8.64981C26.5909 8.90863 26.9091 9.21922 27.1818 9.63334C27.2727 9.73687 27.3182 9.8404 27.3637 9.94393C27.5 10.0992 27.5909 10.2545 27.6818 10.4616C28 11.1863 28.2727 11.9627 28.4091 12.6875C28.5 13.0498 28.5455 13.4122 28.6364 13.8781C28.6818 14.1886 28.7273 14.4992 28.7727 14.9134L28.8182 15.1722C28.8637 15.5345 28.9091 15.8451 28.9091 16.2075C28.9091 16.4663 28.9091 16.7769 28.9091 17.0357V17.2428C28.9091 17.5533 28.8637 17.8639 28.8182 18.1745C28.7727 18.6404 28.7273 19.0545 28.6818 19.5204C28.5909 19.9863 28.5455 20.4004 28.5 20.8663C28.4546 21.0216 28.4091 21.2804 28.3637 21.4357L28.2273 21.6945C28.1818 21.8498 28.1364 21.9533 28.1364 22.1086C28.0455 22.3675 28 22.6781 27.9091 22.9369C27.7273 23.4545 27.4546 24.0239 27.2273 24.5933C27 25.1628 26.6818 25.7322 26.4091 26.3016C26.2727 26.4569 26.2273 26.6639 26.0909 26.871C25.9546 27.0781 25.8637 27.2851 25.7273 27.4404C25.4546 27.9581 25.2727 28.5275 25.2727 29.0969C25.1818 29.6145 25.2273 30.0804 25.4091 30.5463C25.5455 30.8569 25.6818 31.1675 25.8637 31.4263C26.0909 31.8404 26.4546 32.151 26.8637 32.3581C27.2273 32.5133 27.5909 32.6686 27.9091 32.8757L28.1818 32.9792C28.3637 33.0828 28.6364 33.1345 28.8182 33.1345C29 33.1345 29.1818 33.1863 29.3637 33.2381H29.4546C29.6818 33.3416 29.9091 33.2381 30 33.3416C30.0909 33.3933 30.1364 33.4451 30.2273 33.4451H30.3637H30.4546L30.6364 33.3416L30.6818 32.9792L30.5455 32.9275L30.5 32.8757C30.4091 32.8239 30.3637 32.8239 30.2727 32.7722C30.1364 32.7722 29.9546 32.7204 29.8182 32.6169C29.7273 32.5651 29.6364 32.5133 29.5 32.4616C29.2273 32.3581 28.9546 32.2545 28.7273 32.0992L28.4091 31.9439L28.2273 31.8404C28.0909 31.7886 27.9091 31.6851 27.7727 31.5816C27.3182 31.4263 27.0455 31.1675 26.8182 30.9086C26.3637 30.4428 26.2273 29.8216 26.3637 29.2004C26.5 28.6828 26.6818 28.2169 26.9091 27.751C27.3637 26.9745 27.6364 26.3016 27.9546 25.7322C28.3182 24.9039 28.6364 24.1275 28.8637 23.2475L28.9091 23.1439C29.0455 22.6263 29.1818 22.0569 29.3182 21.5392C29.4091 21.1251 29.4546 20.711 29.5455 20.3486L29.6364 19.831C29.7273 19.5204 29.7727 19.2616 29.7727 18.951C29.8182 18.4333 29.8637 17.8639 29.8637 17.3463V16.8804C29.8637 16.8286 29.8637 16.7251 29.8637 16.6733C29.8637 16.6216 29.8637 16.5698 29.8637 16.5698C29.8637 16.4663 29.8637 16.3628 29.9091 16.2592C29.9546 16.1557 29.9546 15.9486 29.9546 15.7933C29.9546 15.431 29.9546 15.1204 29.9091 14.7063C29.8637 14.2922 29.8637 14.0333 29.8182 13.7228C29.7273 13.0498 29.6364 12.3769 29.4091 11.7557C29.1818 10.9275 28.8182 10.151 28.3637 9.42628C27.9546 8.75334 27.5 8.23569 26.9546 7.76981C26.2727 7.2004 25.5455 6.73452 24.7273 6.42393C23.9546 6.11334 23.1364 5.95805 22.3637 6.00981L21.7727 6.06158C21.5455 6.06158 21.3182 6.11334 21.0455 6.11334C20.4091 6.1651 19.8182 6.26863 19.2273 6.52746C18.5455 6.78628 17.9546 7.14863 17.4091 7.61452C16.9546 7.9251 16.5909 8.33922 16.2727 8.75334C15.8637 9.32275 15.5455 9.89216 15.2727 10.5651L15.1818 10.7722C15.0455 11.238 14.9091 11.7557 14.8182 12.1698C14.8182 12.3251 14.7727 12.4286 14.7273 12.5839C14.6818 12.7392 14.6818 12.7392 14.6364 12.8427C14.5909 13.0498 14.5455 13.2569 14.5455 13.4639C14.5455 13.671 14.5 13.8263 14.4546 13.9816C14.3637 14.4475 14.3182 14.8616 14.3182 15.3275C14.2727 15.8451 14.2727 16.4663 14.3182 17.0357C14.3637 17.7086 14.4546 18.3816 14.5 18.951Z" fill="#B15126"/>
<path d="M7.54544 37.3791C7.63635 36.8615 7.77271 36.3439 7.99999 35.878C8.09089 35.7227 8.1818 35.5156 8.27271 35.3603C8.36362 35.2568 8.36362 35.1533 8.31817 34.998C8.27271 34.8944 8.1818 34.8427 8.13635 34.7909C7.81817 34.6356 7.45453 34.6874 7.22726 34.998C6.99999 35.3086 6.77271 35.7227 6.6818 36.1368C6.36362 37.1721 6.22726 38.3109 6.22726 39.398C6.22726 39.5533 6.22726 39.6568 6.22726 39.7603C6.22726 39.8639 6.22726 39.9156 6.22726 40.0709C6.22726 40.4333 6.27271 40.8474 6.36362 41.158C6.59089 41.9862 7.1818 42.5556 7.95453 42.7109C8.22726 42.8144 8.49999 42.8662 8.81817 42.8662L9.54544 43.0215C10.0454 43.125 10.5454 43.1768 11.1364 43.2803C11.5909 43.3839 12.0909 43.4356 12.4546 43.4356C12.8637 43.4874 13.2727 43.5391 13.7273 43.5909H13.8637C13.9091 43.5909 13.9546 43.5909 14 43.5909H14.1364H14.2727C14.6818 43.6944 15.0909 43.7462 15.5 43.7462L15.9091 43.798L16.9091 43.9015C17 43.9015 17.0455 43.9015 17.0909 43.9015C17.1364 43.9015 17.1364 43.9015 17.1818 43.9015L17.7273 43.9533C17.9546 44.005 18.2273 44.005 18.4546 44.0568C18.6818 44.1086 19 44.1086 19.2727 44.1086H19.7273C19.8637 44.1086 19.9546 44.1086 20.0909 44.1086L20.5455 44.1603C20.7273 44.1603 20.9546 44.2121 21.0909 44.2121H21.5455H22.0909C22.3182 44.2121 22.5455 44.2121 22.8182 44.1603L23.6818 44.1086C24.1364 44.0568 24.5909 44.0568 25 44.005L26.3637 43.9533L27.5455 43.9015C27.8637 43.9015 28.1364 43.8497 28.4546 43.8497L29.2727 43.798L30.6364 43.6944C30.8637 43.6944 31.0909 43.6427 31.3182 43.5909L32.2273 43.4356H32.3182C32.6364 43.3838 32.9091 43.3321 33.1818 43.2803L33.6818 43.1768L34.1364 43.0733L34.5909 42.9697L35.0455 42.8662C35.1364 42.8662 35.1818 42.8144 35.2727 42.7627C35.3637 42.7109 35.4091 42.7109 35.5455 42.7109C35.8182 42.7109 36.1364 42.6074 36.4091 42.5556C37.2727 42.1415 37.8637 41.2615 37.8637 40.1744C37.8637 39.8639 37.8637 39.605 37.8637 39.2944V39.0356C37.8637 38.8286 37.8637 38.5697 37.8182 38.3627C37.7727 37.8968 37.6818 37.4309 37.6364 36.965C37.5 36.0333 37.0909 35.1533 36.4546 34.4803C36.1818 34.1697 35.8182 33.9627 35.4546 33.8074C35.1818 33.6521 34.8637 33.6003 34.5909 33.4968L34.1364 33.3415C34.0455 33.2897 34 33.2897 33.9091 33.238C33.8182 33.1862 33.7273 33.1344 33.5909 33.0827C33.5 33.0309 33.4091 33.0309 33.3182 33.0309C33.2273 33.0309 33.1818 32.9791 33.0909 32.9791C32.7273 32.8756 32.4091 32.8239 32.0909 32.8239C31.9546 32.8239 31.8637 32.8238 31.7727 32.7721L31.5909 32.6686H31.5C31.3637 32.6168 31.1364 32.6168 31 32.7203L30.7727 32.8756L30.9546 33.0827C31.0909 33.238 31.3182 33.3415 31.5455 33.3933C31.5909 33.3933 31.6364 33.3933 31.6364 33.3933C31.8182 33.6003 32.0909 33.7556 32.3637 33.7556C33 33.9109 33.5455 34.0662 34.0455 34.2733C34.6818 34.4286 35.2727 34.7909 35.8182 35.1015C35.9091 35.1533 35.9546 35.205 35.9546 35.2568L36.0909 35.4121C36.2273 35.6709 36.3637 35.9297 36.5 36.2403C36.6364 36.758 36.7727 37.2756 36.8182 37.7415C36.8182 37.9486 36.8637 38.2074 36.8637 38.4662C36.9091 38.8286 36.9091 39.1391 36.9546 39.5015C36.9546 39.7086 36.9546 39.9156 36.9091 40.1227V40.2262C36.9091 40.6921 36.6818 41.1062 36.2727 41.3133C36.0455 41.4686 35.7727 41.5203 35.5 41.5721C35.0455 41.6756 34.5909 41.7274 34.0909 41.8309C33.7727 41.8827 33.4546 41.9344 33.1364 41.9344L32.1818 42.038L31.4091 42.1415H31.2727C30.9091 42.1933 30.5455 42.245 30.1818 42.2968L29.5 42.4521C29.2273 42.5039 28.9091 42.5556 28.6364 42.6074C28.1818 42.7627 27.7727 42.8144 27.3637 42.8144H27.1818C26.7273 42.8662 26.2727 42.8662 25.8182 42.918C25.3637 42.9697 25 42.9697 24.5909 42.9697C23.7273 42.9697 22.8637 42.9697 21.9546 42.9697H21.3182H20.6818H20.2727H19.8637H19.1364H18.5909H18.2727C18.1364 42.9697 18 42.9697 17.8182 42.9697C17.6818 42.9697 17.5455 42.9697 17.3637 42.918L17 42.8662C16.9091 42.8662 16.8637 42.8662 16.8182 42.8662C16.7727 42.8662 16.6818 42.8662 16.6364 42.8662L15.4546 42.7627L15.1364 42.7109L14.4091 42.6074L14.0909 42.5556L13.0455 42.4521C12.8637 42.4003 12.5909 42.4003 12.4091 42.3486L11.9545 42.1933C11.6818 42.1415 11.4545 42.0897 11.1818 42.038C10.9091 41.9862 10.7273 41.9862 10.5454 41.9344C10.2727 41.8827 9.99999 41.8827 9.72726 41.8309C9.36362 41.7791 8.99999 41.6756 8.72726 41.6238L8.36362 41.5203C7.86362 41.365 7.45453 40.8474 7.40908 40.2262C7.40908 39.7603 7.40908 39.3462 7.45453 38.8803C7.45453 38.4662 7.49999 37.9486 7.54544 37.3791Z" fill="#B15126"/>
<path d="M28.1818 7.35563C28.3637 7.35563 28.5909 7.35563 28.7728 7.35563H29L29.3182 7.30387C29.5455 7.2521 29.7728 7.2521 30 7.30387C30.4091 7.35563 30.7728 7.4074 31.1818 7.45916L31.4091 7.51093C32.0455 7.61445 32.6364 7.82151 33.1364 8.23563L33.1818 8.2874C33.5 8.49445 33.7728 8.75328 34 9.0121C34.3637 9.42622 34.6818 9.84034 34.8637 10.4097L35 10.7203C35.1364 11.0827 35.3182 11.445 35.4091 11.8592L35.5 12.2733C35.6364 12.8427 35.7273 13.4121 35.7728 14.0851V14.2404C35.7728 14.3957 35.7728 14.4992 35.7728 14.7062C35.8637 15.1721 35.8637 15.638 35.8182 16.1039C35.8182 16.2592 35.8182 16.518 35.8182 16.6733C35.8182 17.0357 35.7728 17.398 35.6818 17.7604L35.6364 17.9674C35.5455 18.4851 35.5 19.0027 35.3637 19.5721C35.2728 20.038 35.1818 20.5039 35.0455 20.9698C34.9546 21.2286 34.9091 21.5392 34.7728 21.798C34.7273 21.9533 34.6818 22.0568 34.6364 22.2121C34.5455 22.3674 34.5455 22.3674 34.5455 22.5227C34.5 22.678 34.4091 22.8851 34.3637 23.0404C33.9091 23.9204 33.5455 24.5933 33.1364 25.2145C32.7728 25.7839 32.5909 26.4051 32.5455 27.078C32.5 27.6474 32.6818 28.2168 32.9546 28.7862C33.3182 29.3557 33.7273 29.8215 34.2728 30.0804C34.8637 30.391 35.5 30.598 36.1364 30.7533C36.7728 30.9086 37.4546 31.0639 38.0455 31.2192L38.7273 31.3745C39.1364 31.478 39.5455 31.5298 40 31.6333C40.6818 31.7886 41.3182 32.0474 41.9091 32.4098C42.1364 32.5651 42.3182 32.7204 42.4546 32.9792C42.7728 33.4968 42.9091 34.118 43 34.791C43.0455 35.0498 43.0909 35.3604 43.1364 35.6192V35.671C43.1364 35.7745 43.1364 35.8262 43.1364 35.878V36.0333C43.0909 36.3439 43.0455 36.7062 43 37.0168C42.9546 37.5345 42.5909 37.8968 42.1818 37.9486C41.9091 38.0521 41.5909 38.1039 41.3182 38.1039L40.9091 38.1557L40.6364 38.2074L39.4091 38.3627C39.0909 38.4145 38.8637 38.7251 38.8637 39.0874C38.8182 39.398 39 39.6568 39.3182 39.7086C39.3637 39.7086 39.4091 39.7086 39.4546 39.7086H39.5C39.6364 39.7086 39.7728 39.6568 39.9546 39.6051L40.3637 39.5533L41.0909 39.4498L41.8637 39.2945L42.1364 39.2427C42.5455 39.191 42.8637 39.0874 43.1818 38.8286C43.8182 38.3627 44.1818 37.5862 44.1818 36.758C44.1818 36.2404 44.1364 35.7745 44.1364 35.3086C44.1364 35.1533 44.0909 34.9462 44.0909 34.791V34.6357C44.0909 34.4286 44.0455 34.1698 44 33.9627C43.9091 33.4968 43.8182 33.1345 43.6818 32.7204C43.5 32.151 43.1818 31.5815 42.6818 31.271C42.3182 31.0121 41.9546 30.8051 41.5 30.6498C41.0455 30.4945 40.5455 30.3392 40 30.1839C39.6364 30.0804 39.2728 30.0286 38.9091 29.9251L38.6818 29.8733L38.1364 29.7698C37.8637 29.718 37.6364 29.6662 37.3637 29.6145C37 29.511 36.6818 29.4592 36.3637 29.3557H36C35.4091 29.2004 34.8637 28.8898 34.3637 28.5274C33.8182 28.2168 33.5 27.5439 33.6364 26.8192C33.7273 26.1462 33.9546 25.5768 34.3637 25.0074C34.6364 24.5415 34.9091 24.0757 35.0909 23.5062L35.2273 23.1957C35.3637 22.9886 35.4091 22.678 35.5 22.471L35.6818 21.9533C35.8182 21.6427 35.9091 21.3839 36 21.0733C36.1364 20.6074 36.2273 20.2451 36.3182 19.7792C36.4091 19.3133 36.5 18.7439 36.6364 18.1745C36.6818 17.7604 36.7273 17.398 36.7273 17.0357V16.9321C36.7728 16.518 36.7728 16.1039 36.7728 15.6898V15.3792H36.8637L36.8182 14.8098C36.7728 14.551 36.7273 14.2404 36.7273 13.9815C36.7273 13.8262 36.6818 13.671 36.6818 13.5157C36.6818 13.2568 36.6364 12.998 36.5909 12.7392C36.5455 12.2733 36.4546 11.8592 36.3637 11.3933C36.1364 10.4615 35.7273 9.58151 35.2273 8.80504C35.0455 8.49445 34.7728 8.23563 34.5455 7.97681C34.2728 7.71798 34 7.45916 33.6818 7.2521C33.3182 6.99328 32.9546 6.78622 32.5455 6.63093L32.3637 6.57916C31.9546 6.42387 31.5455 6.26857 31.1364 6.26857C30.9546 6.26857 30.7273 6.21681 30.5455 6.21681C30.3182 6.16504 30.0455 6.16504 29.8182 6.16504C29.4091 6.16504 29 6.21681 28.5909 6.26857L28.3182 6.32034C28.1818 6.3721 27.9546 6.42387 27.8182 6.47563C27.6818 6.5274 27.6364 6.63093 27.5909 6.73445C27.5909 6.88975 27.6364 6.99328 27.7273 7.09681C27.8182 7.20034 28 7.30387 28.1818 7.35563Z" fill="#B15126"/>
<path d="M19.8182 34.4285C19.3637 34.9979 18.9091 35.5673 18.3637 36.0332C18.0455 36.3438 17.6364 36.6026 17.3637 36.8614L17.1364 37.0167C17 37.172 16.6818 37.2755 16.4546 37.172C16.1818 37.0167 15.8637 36.8097 15.5909 36.6544C15.5 36.6026 15.4546 36.5508 15.4091 36.4991H15.3182C15.1818 36.3438 15.0455 36.292 14.9091 36.1885C14.7273 36.0332 14.5 35.8779 14.3182 35.6708C14.1818 35.4638 13.8637 35.3603 13.6364 35.412C13.5 35.412 13.4546 35.5155 13.3637 35.5673C13.3182 35.7226 13.3182 35.8261 13.4091 35.9297C13.4546 36.0332 13.5 36.085 13.5455 36.085L14.2273 36.6544L14.5455 36.9132C14.6364 37.0167 14.6818 37.0685 14.8182 37.1203C15.2728 37.4308 15.6818 37.6897 16.1364 38.0003C16.2728 38.1555 16.5 38.2073 16.7273 38.2073C16.8637 38.2073 16.9546 38.1556 17.0909 38.1038C17.9091 37.6379 18.7273 37.0685 19.4546 36.4473C19.9091 35.9814 20.3182 35.5155 20.6818 34.9461C21.2728 34.1179 21.5909 33.0308 21.5 31.9438C21.4546 31.6332 21.4091 31.3744 21.3637 31.0638C21.2273 30.5461 20.9546 30.1838 20.6364 29.8732C20.3182 29.5626 19.9091 29.3555 19.5 29.252C19.2273 29.2003 18.9091 29.2003 18.6364 29.252C18.0455 29.4073 17.4546 29.7697 17.0455 30.2355C16.8182 30.4944 16.7728 30.4944 16.5909 30.3908H16.4546C16.2273 30.0803 15.9546 29.8214 15.6364 29.5626C15.1364 29.2003 14.5 29.045 13.8637 29.2003C13.0455 29.3555 12.3182 30.0285 12 30.9085C11.8182 31.4261 11.7727 31.9955 11.8182 32.565C11.8182 32.7203 11.8636 32.8755 11.9545 33.0308C12.0909 33.2379 12.3182 33.3932 12.5455 33.2897C12.7273 33.1861 12.8182 32.9791 12.7728 32.772C12.7728 32.7203 12.7728 32.6167 12.7728 32.6167V32.4614V32.3579V32.3061C12.7728 32.1508 12.7728 32.0991 12.8182 31.9438C12.8637 31.4261 13.1364 30.9085 13.5455 30.6497C14.0909 30.1838 14.8182 30.1838 15.3637 30.6497C15.7273 30.9085 16 31.2708 16.2273 31.685C16.3637 31.892 16.5455 32.0473 16.7728 32.0473C17 31.9955 17.1818 31.892 17.2273 31.6332C17.4091 31.2191 17.6818 30.8567 18 30.5979C18.4546 30.2356 19 30.132 19.5 30.3908C20 30.5461 20.4546 30.9603 20.5909 31.5297C20.6818 31.7885 20.7273 32.0473 20.6818 32.3579C20.5455 33.1344 20.2273 33.8591 19.8182 34.4285Z" fill="#B15126"/>
<path d="M11.5454 34.3249C11.5454 34.4285 11.5909 34.532 11.6818 34.5838C11.8182 34.6355 11.9091 34.6873 12.0454 34.6873C12.5 34.6873 12.9091 34.6873 13.3636 34.6873C13.7273 34.739 14.0455 34.532 14.1364 34.1696C14.2727 33.859 14.3636 33.6002 14.5 33.2896L14.5909 33.1343C14.6364 32.979 14.6818 32.979 14.7273 32.979C14.8182 33.0308 14.8636 33.0826 14.8636 33.1343C15 33.3414 15.0455 33.6002 15.1364 33.859C15.2273 34.2214 15.3182 34.532 15.4091 34.8943C15.5 35.2567 15.5455 35.4638 15.6364 35.7226C15.6818 35.9296 15.8182 36.0849 16 36.1885C16.0455 36.1885 16.0909 36.2402 16.1364 36.2402C16.2273 36.2402 16.2727 36.1885 16.3636 36.1367C16.5 36.0332 16.5909 35.9296 16.6364 35.7226C16.7273 35.4638 16.8182 35.2049 16.9091 34.8943C17 34.6355 17.0455 34.3767 17.1364 34.1179C17.1818 34.0143 17.2273 33.9626 17.2727 33.9626C17.3636 33.9626 17.4091 34.0661 17.4091 34.1179L17.4546 34.2214C17.4546 34.2732 17.5 34.2732 17.5 34.3249C17.6364 34.5838 17.8636 34.8426 18.1364 34.7908H18.6364C18.7727 34.7908 18.9091 34.7908 19.0455 34.7908C19.2273 34.7908 19.3636 34.6355 19.4091 34.4285V34.3767C19.4091 34.1696 19.2727 33.9626 19.0455 33.9626C18.8636 33.9626 18.5909 33.9626 18.4091 33.9626C18.2273 33.9626 18 33.8073 17.9546 33.6002L17.9091 33.4449C17.8636 33.2896 17.8182 33.1861 17.7727 33.0308C17.6818 32.8238 17.5455 32.6685 17.3182 32.6685C17.1818 32.6685 17 32.772 16.8636 32.8755C16.7727 33.0308 16.7273 33.1343 16.7273 33.3414C16.5909 33.859 16.4546 34.3767 16.2273 34.8426C16.2273 34.8943 16.1818 34.9461 16.1364 34.9461C16.0909 34.9461 16.0455 34.8943 16.0455 34.8426C15.9091 34.4802 15.8636 34.1696 15.7273 33.7038C15.6364 33.4449 15.5909 33.1861 15.5455 32.9273C15.4546 32.6167 15.4091 32.2543 15.3182 31.9438C15.2273 31.7367 15.0909 31.5296 14.8636 31.4779C14.6364 31.4261 14.4091 31.5814 14.2727 31.8402C14.1364 32.099 14.0455 32.3579 13.9546 32.7202C13.9091 32.8755 13.8636 32.979 13.8182 33.1343C13.7727 33.2896 13.7273 33.4449 13.6818 33.652C13.6364 33.8073 13.5455 33.9626 13.3636 34.0143C13.1818 34.0143 12.9091 34.0143 12.7273 34.0143H12.4546H12.1818C12.0455 34.0661 11.8182 34.0661 11.6818 34.1179C11.5909 34.0661 11.5454 34.1696 11.5454 34.3249Z" fill="#B15126"/>
<path d="M9.40908 23.3509C9.5909 23.4027 9.81817 23.1956 9.86363 22.9368C9.86363 22.8851 9.86363 22.8851 9.86363 22.8333V22.678C9.86363 22.5227 9.86363 22.4709 9.90908 22.3156C9.99999 22.1086 10.0909 22.0568 10.4545 22.0051C10.9545 22.0051 11.4545 22.0051 11.9545 22.0051C12.0909 22.0051 12.2273 22.1086 12.3182 22.2121C12.3636 22.3674 12.4091 22.5227 12.4546 22.7298V22.8333C12.4546 23.0921 12.5909 23.2992 12.8636 23.2992H12.9091C13.1364 23.2992 13.3182 23.1439 13.3636 22.8851C13.3636 22.8851 13.3636 22.8851 13.3636 22.8333V22.678C13.3636 22.5227 13.3636 22.2639 13.3636 22.1086C13.3636 21.7462 13.2273 21.4356 12.9091 21.2286C12.5909 21.0215 12.1818 20.918 11.8182 20.918C11.6364 20.918 11.3636 20.918 11.1818 20.9698H10.2273C9.72726 21.0215 9.27272 21.4356 9.13635 21.9533C9.0909 22.2121 9.04544 22.4709 9.04544 22.7815C9.04544 22.9368 9.0909 23.0404 9.18181 23.1439C9.18181 23.2474 9.27272 23.2992 9.40908 23.3509Z" fill="#B15126"/>
</svg>
